<svg xmlns="http://www.w3.org/2000/svg" xmlns:xlink="http://www.w3.org/1999/xlink" width="474" zoomAndPan="magnify" viewBox="0 0 355.5 131.999998" height="176" preserveAspectRatio="xMidYMid meet" version="1.2"><defs><clipPath id="77676f3021"><path d="M 0 0.09375 L 355 0.09375 L 355 131.90625 L 0 131.90625 Z M 0 0.09375 "/></clipPath></defs><g id="7ec7aae9fa"><g clip-rule="nonzero" clip-path="url(#77676f3021)"><path style=" stroke:none;fill-rule:nonzero;fill:#ffffff;fill-opacity:1;" d="M 0 0.09375 L 355 0.09375 L 355 131.90625 L 0 131.90625 Z M 0 0.09375 "/></g><g style="fill:#a6a6a6;fill-opacity:0.4;"><g transform="translate(27.577956, 103.406736)"><path style="stroke:none" d="M 5.265625 -15.875 L 5.65625 -10.046875 C 5.820312 -7.710938 6.550781 -5.960938 7.84375 -4.796875 C 9.132812 -3.640625 10.976562 -3.0625 13.375 -3.0625 C 14.820312 -3.0625 16.046875 -3.269531 17.046875 -3.6875 C 18.046875 -4.113281 18.800781 -4.75 19.3125 -5.59375 C 19.820312 -6.445312 20.078125 -7.5 20.078125 -8.75 C 20.078125 -9.539062 20.054688 -10.332031 20.015625 -11.125 C 19.984375 -11.925781 19.9375 -12.679688 19.875 -13.390625 L 22.171875 -13.6875 L 20.609375 -11.703125 C 19.929688 -10.859375 19.171875 -10.207031 18.328125 -9.75 C 17.484375 -9.300781 16.503906 -9.078125 15.390625 -9.078125 C 13.648438 -9.078125 12.351562 -9.507812 11.5 -10.375 C 10.65625 -11.238281 10.234375 -12.546875 10.234375 -14.296875 L 10.234375 -21.171875 L 13.484375 -21.171875 L 13.484375 -14.5 C 13.484375 -13.613281 13.660156 -12.957031 14.015625 -12.53125 C 14.367188 -12.113281 14.890625 -11.90625 15.578125 -11.90625 C 16.296875 -11.90625 16.910156 -12.097656 17.421875 -12.484375 C 17.941406 -12.867188 18.476562 -13.40625 19.03125 -14.09375 L 20.203125 -15.578125 L 22.8125 -15.25 C 22.9375 -14.4375 23.035156 -13.675781 23.109375 -12.96875 C 23.179688 -12.269531 23.234375 -11.582031 23.265625 -10.90625 C 23.304688 -10.226562 23.328125 -9.507812 23.328125 -8.75 C 23.328125 -5.976562 22.492188 -3.851562 20.828125 -2.375 C 19.160156 -0.90625 16.707031 -0.171875 13.46875 -0.171875 C 10.0625 -0.171875 7.425781 -0.984375 5.5625 -2.609375 C 3.695312 -4.234375 2.664062 -6.640625 2.46875 -9.828125 L 2.078125 -15.875 Z M -0.765625 -19.296875 L -0.96875 -22 L 26.28125 -22 L 26.484375 -19.296875 Z M 23.0625 -22.625 L 20.65625 -21.65625 L 19.71875 -21.578125 C 20.039062 -22.109375 20.203125 -22.722656 20.203125 -23.421875 C 20.203125 -24.171875 19.960938 -24.710938 19.484375 -25.046875 C 19.003906 -25.390625 18.25 -25.5625 17.21875 -25.5625 L 8.28125 -25.5625 C 6.3125 -25.5625 4.847656 -25.953125 3.890625 -26.734375 C 2.929688 -27.523438 2.453125 -28.734375 2.453125 -30.359375 L 2.453125 -30.875 L 5.28125 -30.875 L 5.3125 -30.4375 C 5.351562 -29.695312 5.613281 -29.148438 6.09375 -28.796875 C 6.582031 -28.453125 7.34375 -28.28125 8.375 -28.28125 L 17.609375 -28.28125 C 18.828125 -28.28125 19.851562 -28.117188 20.6875 -27.796875 C 21.519531 -27.472656 22.148438 -26.976562 22.578125 -26.3125 C 23.003906 -25.65625 23.21875 -24.800781 23.21875 -23.75 C 23.21875 -23.550781 23.207031 -23.359375 23.1875 -23.171875 C 23.164062 -22.984375 23.125 -22.800781 23.0625 -22.625 Z M 23.0625 -22.625 "/></g></g><g style="fill:#a6a6a6;fill-opacity:0.4;"><g transform="translate(50.657285, 103.406736)"><path style="stroke:none" d="M -1.234375 -19.3125 L -1.4375 -22 L 22.828125 -22 L 23.015625 -19.3125 Z M 16.109375 0.859375 L 16.109375 -9.03125 L 16.359375 -14.84375 L 18.03125 -13.59375 C 17.0625 -12.945312 16.066406 -12.238281 15.046875 -11.46875 C 14.035156 -10.707031 13.019531 -9.914062 12 -9.09375 C 10.976562 -8.28125 9.984375 -7.445312 9.015625 -6.59375 C 8.054688 -5.75 7.148438 -4.914062 6.296875 -4.09375 L 3 -4.09375 L 3 -21.25 L 6.25 -21.25 L 6.25 -12.03125 L 6.015625 -5.484375 L 4.8125 -6.640625 C 6.300781 -8.203125 7.984375 -9.769531 9.859375 -11.34375 C 11.734375 -12.914062 13.691406 -14.34375 15.734375 -15.625 L 19.359375 -15.625 L 19.359375 0.859375 Z M 16.109375 0.859375 "/></g></g><g style="fill:#a6a6a6;fill-opacity:0.4;"><g transform="translate(70.853816, 103.406736)"><path style="stroke:none" d="M 16.859375 0.03125 L 2.828125 -5.265625 L 2.828125 -10.90625 L 8.875 -13.484375 L 8.875 -13.671875 L 1.640625 -17.515625 L 1.640625 -20.65625 L 2.84375 -20.796875 C 3.914062 -20.140625 4.972656 -19.46875 6.015625 -18.78125 C 7.054688 -18.09375 8.082031 -17.410156 9.09375 -16.734375 C 10.113281 -16.054688 11.113281 -15.390625 12.09375 -14.734375 L 12.09375 -11.734375 L 5.453125 -8.859375 L 6.078125 -10.1875 L 6.078125 -6.015625 L 5.515625 -7.265625 L 16.8125 -2.984375 L 16.546875 -2.109375 L 16.40625 -5.34375 L 16.40625 -21 L 19.65625 -21 L 19.65625 0.03125 Z M -1.3125 -19.296875 L -1.5 -22 L 19.03125 -22 L 19.03125 -19.296875 Z M 18.28125 -20.796875 L 19.65625 -20.796875 L 19.65625 -14.578125 L 18.28125 -14.578125 Z M 18.28125 -19.296875 L 18.28125 -22 L 23.359375 -22 L 23.5625 -19.296875 Z M 18.28125 -19.296875 "/></g></g><g style="fill:#a6a6a6;fill-opacity:0.4;"><g transform="translate(93.514318, 103.406736)"><path style="stroke:none" d="M 3.0625 0 L 3.0625 -20.21875 L 6.3125 -20.21875 L 6.3125 0 Z M -0.671875 -19.296875 L -0.859375 -22 L 6.140625 -22 L 6.140625 -19.296875 Z M 4.921875 -20.796875 L 6.3125 -20.796875 L 6.3125 -14.578125 L 4.921875 -14.578125 Z M 4.921875 -19.296875 L 4.921875 -22 L 10.015625 -22 L 10.203125 -19.296875 Z M 4.921875 -19.296875 "/></g></g><g style="fill:#a6a6a6;fill-opacity:0.4;"><g transform="translate(100.659652, 103.406736)"><path style="stroke:none" d="M 1.6875 -13.125 L 1.6875 -14.921875 C 1.6875 -17.265625 2.390625 -19.082031 3.796875 -20.375 C 5.210938 -21.675781 7.238281 -22.328125 9.875 -22.328125 C 11.757812 -22.328125 13.296875 -21.960938 14.484375 -21.234375 C 15.671875 -20.515625 16.4375 -19.460938 16.78125 -18.078125 L 17.40625 -18.078125 L 17.375 -13.5625 L 16.703125 -13.4375 L 16.484375 -14.65625 C 16.085938 -16.289062 15.375 -17.492188 14.34375 -18.265625 C 13.3125 -19.035156 11.972656 -19.421875 10.328125 -19.421875 C 8.679688 -19.421875 7.40625 -19.03125 6.5 -18.25 C 5.601562 -17.46875 5.15625 -16.347656 5.15625 -14.890625 L 5.15625 -13.421875 L 4.78125 -14.65625 L 10.828125 -10.765625 L 8.40625 -9 Z M 5.1875 -4.515625 L 2.9375 -6.46875 L 16.8125 -15.15625 L 18.125 -12.421875 Z M 16.703125 0 L 16.703125 -16.796875 L 16.953125 -16.796875 L 16.953125 -22 L 19.953125 -22 L 19.953125 0 Z M 18.578125 -20.796875 L 19.953125 -20.796875 L 19.953125 -14.578125 L 18.578125 -14.578125 Z M 18.578125 -19.296875 L 18.578125 -22 L 23.65625 -22 L 23.859375 -19.296875 Z M 18.578125 -19.296875 "/></g></g><g style="fill:#a6a6a6;fill-opacity:0.4;"><g transform="translate(121.450211, 103.406736)"><path style="stroke:none" d="M 15.296875 0 L 15.296875 -7.796875 L 15.390625 -9.4375 L 15.296875 -12.890625 L 15.296875 -20.765625 L 18.546875 -20.765625 L 18.546875 0 Z M -0.78125 -19.296875 L -0.984375 -22 L 18.1875 -22 L 18.328125 -19.296875 Z M 2.171875 -5.375 C 2.097656 -5.90625 2.039062 -6.445312 2 -7 C 1.957031 -7.5625 1.9375 -8.09375 1.9375 -8.59375 C 1.9375 -10.789062 2.5 -12.445312 3.625 -13.5625 C 4.757812 -14.6875 6.382812 -15.25 8.5 -15.25 C 9.65625 -15.25 10.675781 -15.0625 11.5625 -14.6875 C 12.445312 -14.3125 13.191406 -13.785156 13.796875 -13.109375 C 14.410156 -12.429688 14.875 -11.632812 15.1875 -10.71875 L 15.546875 -10.71875 L 15.328125 -6.21875 C 14.847656 -7.5 14.285156 -8.585938 13.640625 -9.484375 C 12.992188 -10.378906 12.273438 -11.0625 11.484375 -11.53125 C 10.703125 -12 9.863281 -12.234375 8.96875 -12.234375 C 7.738281 -12.234375 6.800781 -11.90625 6.15625 -11.25 C 5.519531 -10.59375 5.203125 -9.585938 5.203125 -8.234375 C 5.203125 -7.765625 5.222656 -7.289062 5.265625 -6.8125 C 5.304688 -6.332031 5.359375 -5.851562 5.421875 -5.375 Z M 17.15625 -20.796875 L 18.546875 -20.796875 L 18.546875 -14.578125 L 17.15625 -14.578125 Z M 17.15625 -19.296875 L 17.15625 -22 L 22.25 -22 L 22.4375 -19.296875 Z M 17.15625 -19.296875 "/></g></g><g style="fill:#a6a6a6;fill-opacity:0.4;"><g transform="translate(140.825582, 103.406736)"><path style="stroke:none" d=""/></g></g><g style="fill:#a6a6a6;fill-opacity:0.4;"><g transform="translate(144.773642, 103.406736)"><path style="stroke:none" d="M 1.6875 -13.125 L 1.6875 -14.921875 C 1.6875 -17.265625 2.390625 -19.082031 3.796875 -20.375 C 5.210938 -21.675781 7.238281 -22.328125 9.875 -22.328125 C 11.757812 -22.328125 13.296875 -21.960938 14.484375 -21.234375 C 15.671875 -20.515625 16.4375 -19.460938 16.78125 -18.078125 L 17.40625 -18.078125 L 17.375 -13.5625 L 16.703125 -13.4375 L 16.484375 -14.65625 C 16.085938 -16.289062 15.375 -17.492188 14.34375 -18.265625 C 13.3125 -19.035156 11.972656 -19.421875 10.328125 -19.421875 C 8.679688 -19.421875 7.40625 -19.03125 6.5 -18.25 C 5.601562 -17.46875 5.15625 -16.347656 5.15625 -14.890625 L 5.15625 -13.421875 L 4.78125 -14.65625 L 10.828125 -10.765625 L 8.40625 -9 Z M 5.1875 -4.515625 L 2.9375 -6.46875 L 16.8125 -15.15625 L 18.125 -12.421875 Z M 16.703125 0 L 16.703125 -16.796875 L 16.953125 -16.796875 L 16.953125 -22 L 19.953125 -22 L 19.953125 0 Z M 18.578125 -20.796875 L 19.953125 -20.796875 L 19.953125 -14.578125 L 18.578125 -14.578125 Z M 18.578125 -19.296875 L 18.578125 -22 L 23.65625 -22 L 23.859375 -19.296875 Z M 18.578125 -19.296875 "/></g></g><g style="fill:#a6a6a6;fill-opacity:0.4;"><g transform="translate(165.564201, 103.406736)"><path style="stroke:none" d="M 13.6875 -30.546875 C 15.101562 -30.546875 16.441406 -30.453125 17.703125 -30.265625 C 18.972656 -30.078125 20.15625 -29.828125 21.25 -29.515625 C 22.351562 -29.203125 23.363281 -28.84375 24.28125 -28.4375 L 24.53125 -25.90625 L 24.453125 -25.90625 C 23.378906 -26.320312 22.289062 -26.675781 21.1875 -26.96875 C 20.082031 -27.269531 18.941406 -27.5 17.765625 -27.65625 C 16.597656 -27.8125 15.363281 -27.890625 14.0625 -27.890625 C 12.28125 -27.890625 10.816406 -27.691406 9.671875 -27.296875 C 8.523438 -26.910156 7.675781 -26.296875 7.125 -25.453125 C 6.570312 -24.609375 6.296875 -23.503906 6.296875 -22.140625 L 6.296875 -20.953125 L 3.078125 -20.953125 L 3.078125 -22.359375 C 3.078125 -24.253906 3.46875 -25.800781 4.25 -27 C 5.039062 -28.207031 6.222656 -29.097656 7.796875 -29.671875 C 9.367188 -30.253906 11.332031 -30.546875 13.6875 -30.546875 Z M 3.0625 0 L 3.0625 -20.21875 L 6.3125 -20.21875 L 6.3125 0 Z M -0.671875 -19.296875 L -0.859375 -22 L 6.140625 -22 L 6.140625 -19.296875 Z M 4.921875 -20.796875 L 6.3125 -20.796875 L 6.3125 -14.578125 L 4.921875 -14.578125 Z M 4.921875 -19.296875 L 4.921875 -22 L 10.015625 -22 L 10.203125 -19.296875 Z M 4.921875 -19.296875 "/></g></g><g style="fill:#a6a6a6;fill-opacity:0.4;"><g transform="translate(175.173508, 103.406736)"><path style="stroke:none" d="M -0.453125 -19.296875 L -0.640625 -22 L 18.234375 -22 L 18.234375 -19.296875 Z M 15.4375 0.03125 L 2.1875 -6.015625 L 2.1875 -12.921875 C 4.28125 -13.847656 6.546875 -14.734375 8.984375 -15.578125 C 11.429688 -16.421875 13.941406 -17.132812 16.515625 -17.71875 L 17.09375 -14.765625 C 15.601562 -14.453125 14.109375 -14.078125 12.609375 -13.640625 C 11.109375 -13.210938 9.648438 -12.734375 8.234375 -12.203125 C 6.816406 -11.679688 5.484375 -11.113281 4.234375 -10.5 L 5.421875 -12.203125 L 5.421875 -6.234375 L 4.171875 -8.21875 L 15.359375 -3.09375 L 15.140625 -2.109375 L 14.984375 -5.34375 L 14.984375 -15.8125 L 15.03125 -16.625 L 15.03125 -20.078125 L 18.234375 -20.078125 L 18.234375 0.03125 Z M 16.84375 -20.796875 L 18.234375 -20.796875 L 18.234375 -14.578125 L 16.84375 -14.578125 Z M 16.84375 -19.296875 L 16.84375 -22 L 21.9375 -22 L 22.125 -19.296875 Z M 7.21875 3.203125 C 6.539062 3.203125 6.03125 3.015625 5.6875 2.640625 C 5.351562 2.265625 5.1875 1.757812 5.1875 1.125 L 5.1875 1 C 5.1875 0.34375 5.351562 -0.164062 5.6875 -0.53125 C 6.03125 -0.894531 6.539062 -1.078125 7.21875 -1.078125 C 7.90625 -1.078125 8.410156 -0.894531 8.734375 -0.53125 C 9.066406 -0.164062 9.234375 0.34375 9.234375 1 L 9.234375 1.125 C 9.234375 1.757812 9.066406 2.265625 8.734375 2.640625 C 8.410156 3.015625 7.90625 3.203125 7.21875 3.203125 Z M 7.21875 3.203125 "/></g></g><g style="fill:#a6a6a6;fill-opacity:0.4;"><g transform="translate(194.23439, 103.406736)"><path style="stroke:none" d="M 18.28125 -20.796875 L 19.65625 -20.796875 L 19.65625 -14.578125 L 18.28125 -14.578125 Z M 18.28125 -19.296875 L 18.28125 -22 L 23.359375 -22 L 23.5625 -19.296875 Z M 16.859375 0.03125 L 2.828125 -5.265625 L 2.828125 -10.890625 L 8.96875 -13.484375 L 8.96875 -13.65625 L 1.640625 -17.515625 L 1.640625 -20.6875 L 2.984375 -20.46875 C 3.765625 -20.007812 4.640625 -19.476562 5.609375 -18.875 C 6.585938 -18.269531 7.625 -17.625 8.71875 -16.9375 C 9.8125 -16.257812 10.921875 -15.566406 12.046875 -14.859375 L 17.90625 -11.265625 L 17.609375 -8.59375 L 10.53125 -12.71875 L 11.8125 -13.375 L 12.59375 -11.890625 L 5.46875 -8.875 L 6.078125 -10.171875 L 6.078125 -6.015625 L 5.515625 -7.265625 L 16.796875 -3 L 16.5625 -2.109375 L 16.40625 -5.34375 L 16.40625 -21.03125 L 19.65625 -21.03125 L 19.65625 0.03125 Z M -1.3125 -19.296875 L -1.5 -22 L 19.65625 -22 L 19.65625 -19.296875 Z M -1.3125 -19.296875 "/></g></g><g style="fill:#a6a6a6;fill-opacity:0.4;"><g transform="translate(214.727935, 103.406736)"><path style="stroke:none" d="M -1.234375 -19.3125 L -1.4375 -22 L 22.828125 -22 L 23.015625 -19.3125 Z M 16.109375 0.859375 L 16.109375 -9.03125 L 16.359375 -14.84375 L 18.03125 -13.59375 C 17.0625 -12.945312 16.066406 -12.238281 15.046875 -11.46875 C 14.035156 -10.707031 13.019531 -9.914062 12 -9.09375 C 10.976562 -8.28125 9.984375 -7.445312 9.015625 -6.59375 C 8.054688 -5.75 7.148438 -4.914062 6.296875 -4.09375 L 3 -4.09375 L 3 -21.25 L 6.25 -21.25 L 6.25 -12.03125 L 6.015625 -5.484375 L 4.8125 -6.640625 C 6.300781 -8.203125 7.984375 -9.769531 9.859375 -11.34375 C 11.734375 -12.914062 13.691406 -14.34375 15.734375 -15.625 L 19.359375 -15.625 L 19.359375 0.859375 Z M 16.109375 0.859375 "/></g></g><g style="fill:#a6a6a6;fill-opacity:0.4;"><g transform="translate(234.924466, 103.406736)"><path style="stroke:none" d="M 5.15625 -4.96875 C 5.1875 -4.726562 5.222656 -4.429688 5.265625 -4.078125 C 5.304688 -3.722656 5.328125 -3.34375 5.328125 -2.9375 C 5.328125 -1.507812 5.125 -0.191406 4.71875 1.015625 C 4.3125 2.222656 3.625 3.394531 2.65625 4.53125 L 0.265625 3.828125 C 0.847656 2.859375 1.28125 1.835938 1.5625 0.765625 C 1.851562 -0.304688 2 -1.492188 2 -2.796875 C 2 -3.179688 1.988281 -3.546875 1.96875 -3.890625 C 1.945312 -4.242188 1.914062 -4.601562 1.875 -4.96875 Z M 5.15625 -4.96875 "/></g></g><g style="fill:#e5762f;fill-opacity:1;"><g transform="translate(26.033329, 101.862107)"><path style="stroke:none" d="M 5.265625 -15.875 L 5.65625 -10.046875 C 5.820312 -7.710938 6.550781 -5.960938 7.84375 -4.796875 C 9.132812 -3.640625 10.976562 -3.0625 13.375 -3.0625 C 14.820312 -3.0625 16.046875 -3.269531 17.046875 -3.6875 C 18.046875 -4.113281 18.800781 -4.75 19.3125 -5.59375 C 19.820312 -6.445312 20.078125 -7.5 20.078125 -8.75 C 20.078125 -9.539062 20.054688 -10.332031 20.015625 -11.125 C 19.984375 -11.925781 19.9375 -12.679688 19.875 -13.390625 L 22.171875 -13.6875 L 20.609375 -11.703125 C 19.929688 -10.859375 19.171875 -10.207031 18.328125 -9.75 C 17.484375 -9.300781 16.503906 -9.078125 15.390625 -9.078125 C 13.648438 -9.078125 12.351562 -9.507812 11.5 -10.375 C 10.65625 -11.238281 10.234375 -12.546875 10.234375 -14.296875 L 10.234375 -21.171875 L 13.484375 -21.171875 L 13.484375 -14.5 C 13.484375 -13.613281 13.660156 -12.957031 14.015625 -12.53125 C 14.367188 -12.113281 14.890625 -11.90625 15.578125 -11.90625 C 16.296875 -11.90625 16.910156 -12.097656 17.421875 -12.484375 C 17.941406 -12.867188 18.476562 -13.40625 19.03125 -14.09375 L 20.203125 -15.578125 L 22.8125 -15.25 C 22.9375 -14.4375 23.035156 -13.675781 23.109375 -12.96875 C 23.179688 -12.269531 23.234375 -11.582031 23.265625 -10.90625 C 23.304688 -10.226562 23.328125 -9.507812 23.328125 -8.75 C 23.328125 -5.976562 22.492188 -3.851562 20.828125 -2.375 C 19.160156 -0.90625 16.707031 -0.171875 13.46875 -0.171875 C 10.0625 -0.171875 7.425781 -0.984375 5.5625 -2.609375 C 3.695312 -4.234375 2.664062 -6.640625 2.46875 -9.828125 L 2.078125 -15.875 Z M -0.765625 -19.296875 L -0.96875 -22 L 26.28125 -22 L 26.484375 -19.296875 Z M 23.0625 -22.625 L 20.65625 -21.65625 L 19.71875 -21.578125 C 20.039062 -22.109375 20.203125 -22.722656 20.203125 -23.421875 C 20.203125 -24.171875 19.960938 -24.710938 19.484375 -25.046875 C 19.003906 -25.390625 18.25 -25.5625 17.21875 -25.5625 L 8.28125 -25.5625 C 6.3125 -25.5625 4.847656 -25.953125 3.890625 -26.734375 C 2.929688 -27.523438 2.453125 -28.734375 2.453125 -30.359375 L 2.453125 -30.875 L 5.28125 -30.875 L 5.3125 -30.4375 C 5.351562 -29.695312 5.613281 -29.148438 6.09375 -28.796875 C 6.582031 -28.453125 7.34375 -28.28125 8.375 -28.28125 L 17.609375 -28.28125 C 18.828125 -28.28125 19.851562 -28.117188 20.6875 -27.796875 C 21.519531 -27.472656 22.148438 -26.976562 22.578125 -26.3125 C 23.003906 -25.65625 23.21875 -24.800781 23.21875 -23.75 C 23.21875 -23.550781 23.207031 -23.359375 23.1875 -23.171875 C 23.164062 -22.984375 23.125 -22.800781 23.0625 -22.625 Z M 23.0625 -22.625 "/></g></g><g style="fill:#e5762f;fill-opacity:1;"><g transform="translate(49.112658, 101.862107)"><path style="stroke:none" d="M -1.234375 -19.3125 L -1.4375 -22 L 22.828125 -22 L 23.015625 -19.3125 Z M 16.109375 0.859375 L 16.109375 -9.03125 L 16.359375 -14.84375 L 18.03125 -13.59375 C 17.0625 -12.945312 16.066406 -12.238281 15.046875 -11.46875 C 14.035156 -10.707031 13.019531 -9.914062 12 -9.09375 C 10.976562 -8.28125 9.984375 -7.445312 9.015625 -6.59375 C 8.054688 -5.75 7.148438 -4.914062 6.296875 -4.09375 L 3 -4.09375 L 3 -21.25 L 6.25 -21.25 L 6.25 -12.03125 L 6.015625 -5.484375 L 4.8125 -6.640625 C 6.300781 -8.203125 7.984375 -9.769531 9.859375 -11.34375 C 11.734375 -12.914062 13.691406 -14.34375 15.734375 -15.625 L 19.359375 -15.625 L 19.359375 0.859375 Z M 16.109375 0.859375 "/></g></g><g style="fill:#e5762f;fill-opacity:1;"><g transform="translate(69.309188, 101.862107)"><path style="stroke:none" d="M 16.859375 0.03125 L 2.828125 -5.265625 L 2.828125 -10.90625 L 8.875 -13.484375 L 8.875 -13.671875 L 1.640625 -17.515625 L 1.640625 -20.65625 L 2.84375 -20.796875 C 3.914062 -20.140625 4.972656 -19.46875 6.015625 -18.78125 C 7.054688 -18.09375 8.082031 -17.410156 9.09375 -16.734375 C 10.113281 -16.054688 11.113281 -15.390625 12.09375 -14.734375 L 12.09375 -11.734375 L 5.453125 -8.859375 L 6.078125 -10.1875 L 6.078125 -6.015625 L 5.515625 -7.265625 L 16.8125 -2.984375 L 16.546875 -2.109375 L 16.40625 -5.34375 L 16.40625 -21 L 19.65625 -21 L 19.65625 0.03125 Z M -1.3125 -19.296875 L -1.5 -22 L 19.03125 -22 L 19.03125 -19.296875 Z M 18.28125 -20.796875 L 19.65625 -20.796875 L 19.65625 -14.578125 L 18.28125 -14.578125 Z M 18.28125 -19.296875 L 18.28125 -22 L 23.359375 -22 L 23.5625 -19.296875 Z M 18.28125 -19.296875 "/></g></g><g style="fill:#e5762f;fill-opacity:1;"><g transform="translate(91.969691, 101.862107)"><path style="stroke:none" d="M 3.0625 0 L 3.0625 -20.21875 L 6.3125 -20.21875 L 6.3125 0 Z M -0.671875 -19.296875 L -0.859375 -22 L 6.140625 -22 L 6.140625 -19.296875 Z M 4.921875 -20.796875 L 6.3125 -20.796875 L 6.3125 -14.578125 L 4.921875 -14.578125 Z M 4.921875 -19.296875 L 4.921875 -22 L 10.015625 -22 L 10.203125 -19.296875 Z M 4.921875 -19.296875 "/></g></g><g style="fill:#e5762f;fill-opacity:1;"><g transform="translate(99.115025, 101.862107)"><path style="stroke:none" d="M 1.6875 -13.125 L 1.6875 -14.921875 C 1.6875 -17.265625 2.390625 -19.082031 3.796875 -20.375 C 5.210938 -21.675781 7.238281 -22.328125 9.875 -22.328125 C 11.757812 -22.328125 13.296875 -21.960938 14.484375 -21.234375 C 15.671875 -20.515625 16.4375 -19.460938 16.78125 -18.078125 L 17.40625 -18.078125 L 17.375 -13.5625 L 16.703125 -13.4375 L 16.484375 -14.65625 C 16.085938 -16.289062 15.375 -17.492188 14.34375 -18.265625 C 13.3125 -19.035156 11.972656 -19.421875 10.328125 -19.421875 C 8.679688 -19.421875 7.40625 -19.03125 6.5 -18.25 C 5.601562 -17.46875 5.15625 -16.347656 5.15625 -14.890625 L 5.15625 -13.421875 L 4.78125 -14.65625 L 10.828125 -10.765625 L 8.40625 -9 Z M 5.1875 -4.515625 L 2.9375 -6.46875 L 16.8125 -15.15625 L 18.125 -12.421875 Z M 16.703125 0 L 16.703125 -16.796875 L 16.953125 -16.796875 L 16.953125 -22 L 19.953125 -22 L 19.953125 0 Z M 18.578125 -20.796875 L 19.953125 -20.796875 L 19.953125 -14.578125 L 18.578125 -14.578125 Z M 18.578125 -19.296875 L 18.578125 -22 L 23.65625 -22 L 23.859375 -19.296875 Z M 18.578125 -19.296875 "/></g></g><g style="fill:#e5762f;fill-opacity:1;"><g transform="translate(119.905584, 101.862107)"><path style="stroke:none" d="M 15.296875 0 L 15.296875 -7.796875 L 15.390625 -9.4375 L 15.296875 -12.890625 L 15.296875 -20.765625 L 18.546875 -20.765625 L 18.546875 0 Z M -0.78125 -19.296875 L -0.984375 -22 L 18.1875 -22 L 18.328125 -19.296875 Z M 2.171875 -5.375 C 2.097656 -5.90625 2.039062 -6.445312 2 -7 C 1.957031 -7.5625 1.9375 -8.09375 1.9375 -8.59375 C 1.9375 -10.789062 2.5 -12.445312 3.625 -13.5625 C 4.757812 -14.6875 6.382812 -15.25 8.5 -15.25 C 9.65625 -15.25 10.675781 -15.0625 11.5625 -14.6875 C 12.445312 -14.3125 13.191406 -13.785156 13.796875 -13.109375 C 14.410156 -12.429688 14.875 -11.632812 15.1875 -10.71875 L 15.546875 -10.71875 L 15.328125 -6.21875 C 14.847656 -7.5 14.285156 -8.585938 13.640625 -9.484375 C 12.992188 -10.378906 12.273438 -11.0625 11.484375 -11.53125 C 10.703125 -12 9.863281 -12.234375 8.96875 -12.234375 C 7.738281 -12.234375 6.800781 -11.90625 6.15625 -11.25 C 5.519531 -10.59375 5.203125 -9.585938 5.203125 -8.234375 C 5.203125 -7.765625 5.222656 -7.289062 5.265625 -6.8125 C 5.304688 -6.332031 5.359375 -5.851562 5.421875 -5.375 Z M 17.15625 -20.796875 L 18.546875 -20.796875 L 18.546875 -14.578125 L 17.15625 -14.578125 Z M 17.15625 -19.296875 L 17.15625 -22 L 22.25 -22 L 22.4375 -19.296875 Z M 17.15625 -19.296875 "/></g></g><g style="fill:#e5762f;fill-opacity:1;"><g transform="translate(139.280955, 101.862107)"><path style="stroke:none" d=""/></g></g><g style="fill:#e5762f;fill-opacity:1;"><g transform="translate(143.229015, 101.862107)"><path style="stroke:none" d="M 1.6875 -13.125 L 1.6875 -14.921875 C 1.6875 -17.265625 2.390625 -19.082031 3.796875 -20.375 C 5.210938 -21.675781 7.238281 -22.328125 9.875 -22.328125 C 11.757812 -22.328125 13.296875 -21.960938 14.484375 -21.234375 C 15.671875 -20.515625 16.4375 -19.460938 16.78125 -18.078125 L 17.40625 -18.078125 L 17.375 -13.5625 L 16.703125 -13.4375 L 16.484375 -14.65625 C 16.085938 -16.289062 15.375 -17.492188 14.34375 -18.265625 C 13.3125 -19.035156 11.972656 -19.421875 10.328125 -19.421875 C 8.679688 -19.421875 7.40625 -19.03125 6.5 -18.25 C 5.601562 -17.46875 5.15625 -16.347656 5.15625 -14.890625 L 5.15625 -13.421875 L 4.78125 -14.65625 L 10.828125 -10.765625 L 8.40625 -9 Z M 5.1875 -4.515625 L 2.9375 -6.46875 L 16.8125 -15.15625 L 18.125 -12.421875 Z M 16.703125 0 L 16.703125 -16.796875 L 16.953125 -16.796875 L 16.953125 -22 L 19.953125 -22 L 19.953125 0 Z M 18.578125 -20.796875 L 19.953125 -20.796875 L 19.953125 -14.578125 L 18.578125 -14.578125 Z M 18.578125 -19.296875 L 18.578125 -22 L 23.65625 -22 L 23.859375 -19.296875 Z M 18.578125 -19.296875 "/></g></g><g style="fill:#e5762f;fill-opacity:1;"><g transform="translate(164.019574, 101.862107)"><path style="stroke:none" d="M 13.6875 -30.546875 C 15.101562 -30.546875 16.441406 -30.453125 17.703125 -30.265625 C 18.972656 -30.078125 20.15625 -29.828125 21.25 -29.515625 C 22.351562 -29.203125 23.363281 -28.84375 24.28125 -28.4375 L 24.53125 -25.90625 L 24.453125 -25.90625 C 23.378906 -26.320312 22.289062 -26.675781 21.1875 -26.96875 C 20.082031 -27.269531 18.941406 -27.5 17.765625 -27.65625 C 16.597656 -27.8125 15.363281 -27.890625 14.0625 -27.890625 C 12.28125 -27.890625 10.816406 -27.691406 9.671875 -27.296875 C 8.523438 -26.910156 7.675781 -26.296875 7.125 -25.453125 C 6.570312 -24.609375 6.296875 -23.503906 6.296875 -22.140625 L 6.296875 -20.953125 L 3.078125 -20.953125 L 3.078125 -22.359375 C 3.078125 -24.253906 3.46875 -25.800781 4.25 -27 C 5.039062 -28.207031 6.222656 -29.097656 7.796875 -29.671875 C 9.367188 -30.253906 11.332031 -30.546875 13.6875 -30.546875 Z M 3.0625 0 L 3.0625 -20.21875 L 6.3125 -20.21875 L 6.3125 0 Z M -0.671875 -19.296875 L -0.859375 -22 L 6.140625 -22 L 6.140625 -19.296875 Z M 4.921875 -20.796875 L 6.3125 -20.796875 L 6.3125 -14.578125 L 4.921875 -14.578125 Z M 4.921875 -19.296875 L 4.921875 -22 L 10.015625 -22 L 10.203125 -19.296875 Z M 4.921875 -19.296875 "/></g></g><g style="fill:#e5762f;fill-opacity:1;"><g transform="translate(173.62888, 101.862107)"><path style="stroke:none" d="M -0.453125 -19.296875 L -0.640625 -22 L 18.234375 -22 L 18.234375 -19.296875 Z M 15.4375 0.03125 L 2.1875 -6.015625 L 2.1875 -12.921875 C 4.28125 -13.847656 6.546875 -14.734375 8.984375 -15.578125 C 11.429688 -16.421875 13.941406 -17.132812 16.515625 -17.71875 L 17.09375 -14.765625 C 15.601562 -14.453125 14.109375 -14.078125 12.609375 -13.640625 C 11.109375 -13.210938 9.648438 -12.734375 8.234375 -12.203125 C 6.816406 -11.679688 5.484375 -11.113281 4.234375 -10.5 L 5.421875 -12.203125 L 5.421875 -6.234375 L 4.171875 -8.21875 L 15.359375 -3.09375 L 15.140625 -2.109375 L 14.984375 -5.34375 L 14.984375 -15.8125 L 15.03125 -16.625 L 15.03125 -20.078125 L 18.234375 -20.078125 L 18.234375 0.03125 Z M 16.84375 -20.796875 L 18.234375 -20.796875 L 18.234375 -14.578125 L 16.84375 -14.578125 Z M 16.84375 -19.296875 L 16.84375 -22 L 21.9375 -22 L 22.125 -19.296875 Z M 7.21875 3.203125 C 6.539062 3.203125 6.03125 3.015625 5.6875 2.640625 C 5.351562 2.265625 5.1875 1.757812 5.1875 1.125 L 5.1875 1 C 5.1875 0.34375 5.351562 -0.164062 5.6875 -0.53125 C 6.03125 -0.894531 6.539062 -1.078125 7.21875 -1.078125 C 7.90625 -1.078125 8.410156 -0.894531 8.734375 -0.53125 C 9.066406 -0.164062 9.234375 0.34375 9.234375 1 L 9.234375 1.125 C 9.234375 1.757812 9.066406 2.265625 8.734375 2.640625 C 8.410156 3.015625 7.90625 3.203125 7.21875 3.203125 Z M 7.21875 3.203125 "/></g></g><g style="fill:#e5762f;fill-opacity:1;"><g transform="translate(192.689763, 101.862107)"><path style="stroke:none" d="M 18.28125 -20.796875 L 19.65625 -20.796875 L 19.65625 -14.578125 L 18.28125 -14.578125 Z M 18.28125 -19.296875 L 18.28125 -22 L 23.359375 -22 L 23.5625 -19.296875 Z M 16.859375 0.03125 L 2.828125 -5.265625 L 2.828125 -10.890625 L 8.96875 -13.484375 L 8.96875 -13.65625 L 1.640625 -17.515625 L 1.640625 -20.6875 L 2.984375 -20.46875 C 3.765625 -20.007812 4.640625 -19.476562 5.609375 -18.875 C 6.585938 -18.269531 7.625 -17.625 8.71875 -16.9375 C 9.8125 -16.257812 10.921875 -15.566406 12.046875 -14.859375 L 17.90625 -11.265625 L 17.609375 -8.59375 L 10.53125 -12.71875 L 11.8125 -13.375 L 12.59375 -11.890625 L 5.46875 -8.875 L 6.078125 -10.171875 L 6.078125 -6.015625 L 5.515625 -7.265625 L 16.796875 -3 L 16.5625 -2.109375 L 16.40625 -5.34375 L 16.40625 -21.03125 L 19.65625 -21.03125 L 19.65625 0.03125 Z M -1.3125 -19.296875 L -1.5 -22 L 19.65625 -22 L 19.65625 -19.296875 Z M -1.3125 -19.296875 "/></g></g><g style="fill:#e5762f;fill-opacity:1;"><g transform="translate(213.183308, 101.862107)"><path style="stroke:none" d="M -1.234375 -19.3125 L -1.4375 -22 L 22.828125 -22 L 23.015625 -19.3125 Z M 16.109375 0.859375 L 16.109375 -9.03125 L 16.359375 -14.84375 L 18.03125 -13.59375 C 17.0625 -12.945312 16.066406 -12.238281 15.046875 -11.46875 C 14.035156 -10.707031 13.019531 -9.914062 12 -9.09375 C 10.976562 -8.28125 9.984375 -7.445312 9.015625 -6.59375 C 8.054688 -5.75 7.148438 -4.914062 6.296875 -4.09375 L 3 -4.09375 L 3 -21.25 L 6.25 -21.25 L 6.25 -12.03125 L 6.015625 -5.484375 L 4.8125 -6.640625 C 6.300781 -8.203125 7.984375 -9.769531 9.859375 -11.34375 C 11.734375 -12.914062 13.691406 -14.34375 15.734375 -15.625 L 19.359375 -15.625 L 19.359375 0.859375 Z M 16.109375 0.859375 "/></g></g><g style="fill:#e5762f;fill-opacity:1;"><g transform="translate(233.379838, 101.862107)"><path style="stroke:none" d="M 5.15625 -4.96875 C 5.1875 -4.726562 5.222656 -4.429688 5.265625 -4.078125 C 5.304688 -3.722656 5.328125 -3.34375 5.328125 -2.9375 C 5.328125 -1.507812 5.125 -0.191406 4.71875 1.015625 C 4.3125 2.222656 3.625 3.394531 2.65625 4.53125 L 0.265625 3.828125 C 0.847656 2.859375 1.28125 1.835938 1.5625 0.765625 C 1.851562 -0.304688 2 -1.492188 2 -2.796875 C 2 -3.179688 1.988281 -3.546875 1.96875 -3.890625 C 1.945312 -4.242188 1.914062 -4.601562 1.875 -4.96875 Z M 5.15625 -4.96875 "/></g></g><g style="fill:#a6a6a6;fill-opacity:0.4;"><g transform="translate(239.693676, 103.406736)"><path style="stroke:none" d=""/></g></g><g style="fill:#a6a6a6;fill-opacity:0.4;"><g transform="translate(243.641736, 103.406736)"><path style="stroke:none" d="M -0.453125 -19.296875 L -0.640625 -22 L 18.234375 -22 L 18.234375 -19.296875 Z M 15.4375 0.03125 L 2.1875 -6.015625 L 2.1875 -12.921875 C 4.28125 -13.847656 6.546875 -14.734375 8.984375 -15.578125 C 11.429688 -16.421875 13.941406 -17.132812 16.515625 -17.71875 L 17.09375 -14.765625 C 15.601562 -14.453125 14.109375 -14.078125 12.609375 -13.640625 C 11.109375 -13.210938 9.648438 -12.734375 8.234375 -12.203125 C 6.816406 -11.679688 5.484375 -11.113281 4.234375 -10.5 L 5.421875 -12.203125 L 5.421875 -6.234375 L 4.171875 -8.21875 L 15.359375 -3.09375 L 15.140625 -2.109375 L 14.984375 -5.34375 L 14.984375 -15.8125 L 15.03125 -16.625 L 15.03125 -20.078125 L 18.234375 -20.078125 L 18.234375 0.03125 Z M 16.84375 -20.796875 L 18.234375 -20.796875 L 18.234375 -14.578125 L 16.84375 -14.578125 Z M 16.84375 -19.296875 L 16.84375 -22 L 21.9375 -22 L 22.125 -19.296875 Z M 7.21875 3.203125 C 6.539062 3.203125 6.03125 3.015625 5.6875 2.640625 C 5.351562 2.265625 5.1875 1.757812 5.1875 1.125 L 5.1875 1 C 5.1875 0.34375 5.351562 -0.164062 5.6875 -0.53125 C 6.03125 -0.894531 6.539062 -1.078125 7.21875 -1.078125 C 7.90625 -1.078125 8.410156 -0.894531 8.734375 -0.53125 C 9.066406 -0.164062 9.234375 0.34375 9.234375 1 L 9.234375 1.125 C 9.234375 1.757812 9.066406 2.265625 8.734375 2.640625 C 8.410156 3.015625 7.90625 3.203125 7.21875 3.203125 Z M 7.21875 3.203125 "/></g></g><g style="fill:#a6a6a6;fill-opacity:0.4;"><g transform="translate(264.869576, 103.406736)"><path style="stroke:none" d="M -4.046875 -19.296875 L -4.046875 -22 L 8.65625 -22 L 8.875 -19.296875 Z M -0.4375 -13.15625 L -0.1875 -15.765625 C -0.0195312 -15.773438 0.144531 -15.78125 0.3125 -15.78125 C 0.476562 -15.789062 0.632812 -15.796875 0.78125 -15.796875 C 2.738281 -15.796875 4.160156 -15.398438 5.046875 -14.609375 C 5.941406 -13.816406 6.390625 -12.628906 6.390625 -11.046875 L 6.390625 -10.234375 C 6.390625 -8.597656 5.847656 -7.3125 4.765625 -6.375 C 3.691406 -5.445312 2.097656 -4.984375 -0.015625 -4.984375 C -0.734375 -4.984375 -1.457031 -5.054688 -2.1875 -5.203125 C -2.914062 -5.347656 -3.628906 -5.578125 -4.328125 -5.890625 L -4.328125 -8.40625 C -3.640625 -8.101562 -2.945312 -7.875 -2.25 -7.71875 C -1.550781 -7.570312 -0.847656 -7.5 -0.140625 -7.5 C 0.941406 -7.5 1.765625 -7.738281 2.328125 -8.21875 C 2.898438 -8.707031 3.1875 -9.394531 3.1875 -10.28125 L 3.1875 -11.09375 C 3.1875 -11.832031 2.992188 -12.367188 2.609375 -12.703125 C 2.234375 -13.046875 1.617188 -13.21875 0.765625 -13.21875 C 0.578125 -13.21875 0.378906 -13.210938 0.171875 -13.203125 C -0.0351562 -13.191406 -0.238281 -13.175781 -0.4375 -13.15625 Z M -0.4375 -13.15625 "/></g></g><g style="fill:#a6a6a6;fill-opacity:0.4;"><g transform="translate(270.791907, 103.406736)"><path style="stroke:none" d="M 10.875 -19.703125 C 9.695312 -19.285156 8.695312 -18.679688 7.875 -17.890625 C 7.050781 -17.097656 6.425781 -16.113281 6 -14.9375 C 5.570312 -13.769531 5.359375 -12.398438 5.359375 -10.828125 L 5.359375 -8.953125 C 5.359375 -7.472656 5.550781 -6.253906 5.9375 -5.296875 C 6.332031 -4.347656 6.882812 -3.625 7.59375 -3.125 C 8.3125 -2.625 9.144531 -2.289062 10.09375 -2.125 L 10.625 -2.046875 L 10.28125 0.703125 L 9.625 0.625 C 8.082031 0.445312 6.75 -0.0390625 5.625 -0.84375 C 4.5 -1.644531 3.628906 -2.71875 3.015625 -4.0625 C 2.410156 -5.414062 2.109375 -7.003906 2.109375 -8.828125 L 2.109375 -10.671875 C 2.109375 -12.515625 2.367188 -14.113281 2.890625 -15.46875 C 3.410156 -16.832031 4.179688 -17.96875 5.203125 -18.875 C 6.234375 -19.789062 7.507812 -20.507812 9.03125 -21.03125 Z M -1.265625 -19.265625 L -1.453125 -22 L 14.359375 -22 L 14.546875 -19.265625 Z M -1.265625 -19.265625 "/></g></g><g style="fill:#a6a6a6;fill-opacity:0.4;"><g transform="translate(282.497797, 103.406736)"><path style="stroke:none" d="M 8.046875 3.53125 C 7.367188 3.53125 6.859375 3.335938 6.515625 2.953125 C 6.171875 2.578125 6 2.070312 6 1.4375 L 6 1.3125 C 6 0.65625 6.171875 0.140625 6.515625 -0.234375 C 6.859375 -0.609375 7.367188 -0.796875 8.046875 -0.796875 C 8.734375 -0.796875 9.242188 -0.609375 9.578125 -0.234375 C 9.910156 0.140625 10.078125 0.65625 10.078125 1.3125 L 10.078125 1.4375 C 10.078125 2.070312 9.910156 2.578125 9.578125 2.953125 C 9.242188 3.335938 8.734375 3.53125 8.046875 3.53125 Z M 16.859375 0.03125 L 2.828125 -5.265625 L 2.828125 -10.90625 L 8.875 -13.484375 L 8.875 -13.671875 L 1.640625 -17.515625 L 1.640625 -20.65625 L 2.84375 -20.796875 C 3.914062 -20.140625 4.972656 -19.46875 6.015625 -18.78125 C 7.054688 -18.09375 8.082031 -17.410156 9.09375 -16.734375 C 10.113281 -16.054688 11.113281 -15.390625 12.09375 -14.734375 L 12.09375 -11.734375 L 5.453125 -8.859375 L 6.078125 -10.1875 L 6.078125 -6.015625 L 5.515625 -7.265625 L 16.8125 -2.984375 L 16.546875 -2.109375 L 16.40625 -5.34375 L 16.40625 -21 L 19.65625 -21 L 19.65625 0.03125 Z M -1.3125 -19.296875 L -1.5 -22 L 19.03125 -22 L 19.03125 -19.296875 Z M 18.28125 -20.796875 L 19.65625 -20.796875 L 19.65625 -14.578125 L 18.28125 -14.578125 Z M 18.28125 -19.296875 L 18.28125 -22 L 23.359375 -22 L 23.5625 -19.296875 Z M 18.28125 -19.296875 "/></g></g><g style="fill:#a6a6a6;fill-opacity:0.4;"><g transform="translate(302.991342, 103.406736)"><path style="stroke:none" d="M 10.46875 -0.140625 C 7.914062 -0.140625 5.984375 -0.722656 4.671875 -1.890625 C 3.359375 -3.054688 2.703125 -4.867188 2.703125 -7.328125 L 2.703125 -20.6875 L 5.9375 -20.6875 L 5.9375 -7.25 C 5.9375 -5.820312 6.300781 -4.757812 7.03125 -4.0625 C 7.757812 -3.375 8.890625 -3.03125 10.421875 -3.03125 C 11.398438 -3.03125 12.265625 -3.21875 13.015625 -3.59375 C 13.765625 -3.976562 14.390625 -4.488281 14.890625 -5.125 C 15.117188 -5.40625 15.316406 -5.707031 15.484375 -6.03125 C 15.660156 -6.351562 15.804688 -6.6875 15.921875 -7.03125 C 16.046875 -7.375 16.132812 -7.726562 16.1875 -8.09375 C 16.25 -8.46875 16.28125 -8.832031 16.28125 -9.1875 C 16.28125 -10.082031 16.003906 -10.765625 15.453125 -11.234375 C 14.910156 -11.710938 14 -11.953125 12.71875 -11.953125 C 12.195312 -11.953125 11.6875 -11.9375 11.1875 -11.90625 C 10.695312 -11.875 10.160156 -11.832031 9.578125 -11.78125 L 9.828125 -14.65625 C 10.378906 -14.71875 10.898438 -14.765625 11.390625 -14.796875 C 11.878906 -14.835938 12.394531 -14.859375 12.9375 -14.859375 C 15.132812 -14.859375 16.785156 -14.394531 17.890625 -13.46875 C 19.003906 -12.550781 19.5625 -11.191406 19.5625 -9.390625 C 19.5625 -8.867188 19.523438 -8.359375 19.453125 -7.859375 C 19.390625 -7.367188 19.296875 -6.894531 19.171875 -6.4375 C 19.046875 -5.976562 18.890625 -5.535156 18.703125 -5.109375 C 18.515625 -4.691406 18.296875 -4.296875 18.046875 -3.921875 C 17.304688 -2.765625 16.296875 -1.84375 15.015625 -1.15625 C 13.742188 -0.476562 12.226562 -0.140625 10.46875 -0.140625 Z M -1.15625 -19.296875 L -1.34375 -22 L 21.71875 -22 L 21.921875 -19.296875 Z M 19.453125 -22.625 L 17.046875 -21.65625 L 16.09375 -21.578125 C 16.414062 -22.109375 16.578125 -22.722656 16.578125 -23.421875 C 16.578125 -24.191406 16.335938 -24.738281 15.859375 -25.0625 C 15.390625 -25.394531 14.632812 -25.5625 13.59375 -25.5625 L 7.703125 -25.5625 C 5.734375 -25.5625 4.269531 -25.953125 3.3125 -26.734375 C 2.351562 -27.523438 1.875 -28.734375 1.875 -30.359375 L 1.875 -30.875 L 4.703125 -30.875 L 4.734375 -30.4375 C 4.796875 -29.6875 5.0625 -29.140625 5.53125 -28.796875 C 6.007812 -28.453125 6.765625 -28.28125 7.796875 -28.28125 L 14 -28.28125 C 15.207031 -28.28125 16.226562 -28.117188 17.0625 -27.796875 C 17.894531 -27.472656 18.523438 -26.976562 18.953125 -26.3125 C 19.390625 -25.65625 19.609375 -24.800781 19.609375 -23.75 C 19.609375 -23.550781 19.59375 -23.359375 19.5625 -23.171875 C 19.539062 -22.984375 19.503906 -22.800781 19.453125 -22.625 Z M 19.453125 -22.625 "/></g></g><g style="fill:#000000;fill-opacity:1;"><g transform="translate(238.149048, 101.862107)"><path style="stroke:none" d=""/></g></g><g style="fill:#000000;fill-opacity:1;"><g transform="translate(242.097108, 101.862107)"><path style="stroke:none" d="M -0.453125 -19.296875 L -0.640625 -22 L 18.234375 -22 L 18.234375 -19.296875 Z M 15.4375 0.03125 L 2.1875 -6.015625 L 2.1875 -12.921875 C 4.28125 -13.847656 6.546875 -14.734375 8.984375 -15.578125 C 11.429688 -16.421875 13.941406 -17.132812 16.515625 -17.71875 L 17.09375 -14.765625 C 15.601562 -14.453125 14.109375 -14.078125 12.609375 -13.640625 C 11.109375 -13.210938 9.648438 -12.734375 8.234375 -12.203125 C 6.816406 -11.679688 5.484375 -11.113281 4.234375 -10.5 L 5.421875 -12.203125 L 5.421875 -6.234375 L 4.171875 -8.21875 L 15.359375 -3.09375 L 15.140625 -2.109375 L 14.984375 -5.34375 L 14.984375 -15.8125 L 15.03125 -16.625 L 15.03125 -20.078125 L 18.234375 -20.078125 L 18.234375 0.03125 Z M 16.84375 -20.796875 L 18.234375 -20.796875 L 18.234375 -14.578125 L 16.84375 -14.578125 Z M 16.84375 -19.296875 L 16.84375 -22 L 21.9375 -22 L 22.125 -19.296875 Z M 7.21875 3.203125 C 6.539062 3.203125 6.03125 3.015625 5.6875 2.640625 C 5.351562 2.265625 5.1875 1.757812 5.1875 1.125 L 5.1875 1 C 5.1875 0.34375 5.351562 -0.164062 5.6875 -0.53125 C 6.03125 -0.894531 6.539062 -1.078125 7.21875 -1.078125 C 7.90625 -1.078125 8.410156 -0.894531 8.734375 -0.53125 C 9.066406 -0.164062 9.234375 0.34375 9.234375 1 L 9.234375 1.125 C 9.234375 1.757812 9.066406 2.265625 8.734375 2.640625 C 8.410156 3.015625 7.90625 3.203125 7.21875 3.203125 Z M 7.21875 3.203125 "/></g></g><g style="fill:#000000;fill-opacity:1;"><g transform="translate(263.324949, 101.862107)"><path style="stroke:none" d="M -4.046875 -19.296875 L -4.046875 -22 L 8.65625 -22 L 8.875 -19.296875 Z M -0.4375 -13.15625 L -0.1875 -15.765625 C -0.0195312 -15.773438 0.144531 -15.78125 0.3125 -15.78125 C 0.476562 -15.789062 0.632812 -15.796875 0.78125 -15.796875 C 2.738281 -15.796875 4.160156 -15.398438 5.046875 -14.609375 C 5.941406 -13.816406 6.390625 -12.628906 6.390625 -11.046875 L 6.390625 -10.234375 C 6.390625 -8.597656 5.847656 -7.3125 4.765625 -6.375 C 3.691406 -5.445312 2.097656 -4.984375 -0.015625 -4.984375 C -0.734375 -4.984375 -1.457031 -5.054688 -2.1875 -5.203125 C -2.914062 -5.347656 -3.628906 -5.578125 -4.328125 -5.890625 L -4.328125 -8.40625 C -3.640625 -8.101562 -2.945312 -7.875 -2.25 -7.71875 C -1.550781 -7.570312 -0.847656 -7.5 -0.140625 -7.5 C 0.941406 -7.5 1.765625 -7.738281 2.328125 -8.21875 C 2.898438 -8.707031 3.1875 -9.394531 3.1875 -10.28125 L 3.1875 -11.09375 C 3.1875 -11.832031 2.992188 -12.367188 2.609375 -12.703125 C 2.234375 -13.046875 1.617188 -13.21875 0.765625 -13.21875 C 0.578125 -13.21875 0.378906 -13.210938 0.171875 -13.203125 C -0.0351562 -13.191406 -0.238281 -13.175781 -0.4375 -13.15625 Z M -0.4375 -13.15625 "/></g></g><g style="fill:#000000;fill-opacity:1;"><g transform="translate(269.247279, 101.862107)"><path style="stroke:none" d="M 10.875 -19.703125 C 9.695312 -19.285156 8.695312 -18.679688 7.875 -17.890625 C 7.050781 -17.097656 6.425781 -16.113281 6 -14.9375 C 5.570312 -13.769531 5.359375 -12.398438 5.359375 -10.828125 L 5.359375 -8.953125 C 5.359375 -7.472656 5.550781 -6.253906 5.9375 -5.296875 C 6.332031 -4.347656 6.882812 -3.625 7.59375 -3.125 C 8.3125 -2.625 9.144531 -2.289062 10.09375 -2.125 L 10.625 -2.046875 L 10.28125 0.703125 L 9.625 0.625 C 8.082031 0.445312 6.75 -0.0390625 5.625 -0.84375 C 4.5 -1.644531 3.628906 -2.71875 3.015625 -4.0625 C 2.410156 -5.414062 2.109375 -7.003906 2.109375 -8.828125 L 2.109375 -10.671875 C 2.109375 -12.515625 2.367188 -14.113281 2.890625 -15.46875 C 3.410156 -16.832031 4.179688 -17.96875 5.203125 -18.875 C 6.234375 -19.789062 7.507812 -20.507812 9.03125 -21.03125 Z M -1.265625 -19.265625 L -1.453125 -22 L 14.359375 -22 L 14.546875 -19.265625 Z M -1.265625 -19.265625 "/></g></g><g style="fill:#000000;fill-opacity:1;"><g transform="translate(280.95317, 101.862107)"><path style="stroke:none" d="M 8.046875 3.53125 C 7.367188 3.53125 6.859375 3.335938 6.515625 2.953125 C 6.171875 2.578125 6 2.070312 6 1.4375 L 6 1.3125 C 6 0.65625 6.171875 0.140625 6.515625 -0.234375 C 6.859375 -0.609375 7.367188 -0.796875 8.046875 -0.796875 C 8.734375 -0.796875 9.242188 -0.609375 9.578125 -0.234375 C 9.910156 0.140625 10.078125 0.65625 10.078125 1.3125 L 10.078125 1.4375 C 10.078125 2.070312 9.910156 2.578125 9.578125 2.953125 C 9.242188 3.335938 8.734375 3.53125 8.046875 3.53125 Z M 16.859375 0.03125 L 2.828125 -5.265625 L 2.828125 -10.90625 L 8.875 -13.484375 L 8.875 -13.671875 L 1.640625 -17.515625 L 1.640625 -20.65625 L 2.84375 -20.796875 C 3.914062 -20.140625 4.972656 -19.46875 6.015625 -18.78125 C 7.054688 -18.09375 8.082031 -17.410156 9.09375 -16.734375 C 10.113281 -16.054688 11.113281 -15.390625 12.09375 -14.734375 L 12.09375 -11.734375 L 5.453125 -8.859375 L 6.078125 -10.1875 L 6.078125 -6.015625 L 5.515625 -7.265625 L 16.8125 -2.984375 L 16.546875 -2.109375 L 16.40625 -5.34375 L 16.40625 -21 L 19.65625 -21 L 19.65625 0.03125 Z M -1.3125 -19.296875 L -1.5 -22 L 19.03125 -22 L 19.03125 -19.296875 Z M 18.28125 -20.796875 L 19.65625 -20.796875 L 19.65625 -14.578125 L 18.28125 -14.578125 Z M 18.28125 -19.296875 L 18.28125 -22 L 23.359375 -22 L 23.5625 -19.296875 Z M 18.28125 -19.296875 "/></g></g><g style="fill:#000000;fill-opacity:1;"><g transform="translate(301.446715, 101.862107)"><path style="stroke:none" d="M 10.46875 -0.140625 C 7.914062 -0.140625 5.984375 -0.722656 4.671875 -1.890625 C 3.359375 -3.054688 2.703125 -4.867188 2.703125 -7.328125 L 2.703125 -20.6875 L 5.9375 -20.6875 L 5.9375 -7.25 C 5.9375 -5.820312 6.300781 -4.757812 7.03125 -4.0625 C 7.757812 -3.375 8.890625 -3.03125 10.421875 -3.03125 C 11.398438 -3.03125 12.265625 -3.21875 13.015625 -3.59375 C 13.765625 -3.976562 14.390625 -4.488281 14.890625 -5.125 C 15.117188 -5.40625 15.316406 -5.707031 15.484375 -6.03125 C 15.660156 -6.351562 15.804688 -6.6875 15.921875 -7.03125 C 16.046875 -7.375 16.132812 -7.726562 16.1875 -8.09375 C 16.25 -8.46875 16.28125 -8.832031 16.28125 -9.1875 C 16.28125 -10.082031 16.003906 -10.765625 15.453125 -11.234375 C 14.910156 -11.710938 14 -11.953125 12.71875 -11.953125 C 12.195312 -11.953125 11.6875 -11.9375 11.1875 -11.90625 C 10.695312 -11.875 10.160156 -11.832031 9.578125 -11.78125 L 9.828125 -14.65625 C 10.378906 -14.71875 10.898438 -14.765625 11.390625 -14.796875 C 11.878906 -14.835938 12.394531 -14.859375 12.9375 -14.859375 C 15.132812 -14.859375 16.785156 -14.394531 17.890625 -13.46875 C 19.003906 -12.550781 19.5625 -11.191406 19.5625 -9.390625 C 19.5625 -8.867188 19.523438 -8.359375 19.453125 -7.859375 C 19.390625 -7.367188 19.296875 -6.894531 19.171875 -6.4375 C 19.046875 -5.976562 18.890625 -5.535156 18.703125 -5.109375 C 18.515625 -4.691406 18.296875 -4.296875 18.046875 -3.921875 C 17.304688 -2.765625 16.296875 -1.84375 15.015625 -1.15625 C 13.742188 -0.476562 12.226562 -0.140625 10.46875 -0.140625 Z M -1.15625 -19.296875 L -1.34375 -22 L 21.71875 -22 L 21.921875 -19.296875 Z M 19.453125 -22.625 L 17.046875 -21.65625 L 16.09375 -21.578125 C 16.414062 -22.109375 16.578125 -22.722656 16.578125 -23.421875 C 16.578125 -24.191406 16.335938 -24.738281 15.859375 -25.0625 C 15.390625 -25.394531 14.632812 -25.5625 13.59375 -25.5625 L 7.703125 -25.5625 C 5.734375 -25.5625 4.269531 -25.953125 3.3125 -26.734375 C 2.351562 -27.523438 1.875 -28.734375 1.875 -30.359375 L 1.875 -30.875 L 4.703125 -30.875 L 4.734375 -30.4375 C 4.796875 -29.6875 5.0625 -29.140625 5.53125 -28.796875 C 6.007812 -28.453125 6.765625 -28.28125 7.796875 -28.28125 L 14 -28.28125 C 15.207031 -28.28125 16.226562 -28.117188 17.0625 -27.796875 C 17.894531 -27.472656 18.523438 -26.976562 18.953125 -26.3125 C 19.390625 -25.65625 19.609375 -24.800781 19.609375 -23.75 C 19.609375 -23.550781 19.59375 -23.359375 19.5625 -23.171875 C 19.539062 -22.984375 19.503906 -22.800781 19.453125 -22.625 Z M 19.453125 -22.625 "/></g></g><g style="fill:#a6a6a6;fill-opacity:0.4;"><g transform="translate(322.194824, 103.406736)"><path style="stroke:none" d=""/></g></g><g style="fill:#000000;fill-opacity:1;"><g transform="translate(320.650197, 101.862107)"><path style="stroke:none" d=""/></g></g><g style="fill:#a6a6a6;fill-opacity:0.4;"><g transform="translate(28.963549, 62.617552)"><path style="stroke:none" d="M 18.984375 0 L 18.984375 -10.984375 L 19.234375 -13.90625 L 18.984375 -19.53125 L 18.984375 -23.484375 L 26.1875 -23.484375 L 26.1875 0 Z M -1.734375 -22.21875 L -2.125 -27.671875 L 26.1875 -27.671875 L 26.1875 -22.21875 Z M 20.25 -9.875 C 20.03125 -9.9375 19.785156 -9.976562 19.515625 -10 C 19.242188 -10.019531 19.015625 -10.03125 18.828125 -10.03125 C 17.898438 -10.03125 16.988281 -9.769531 16.09375 -9.25 C 15.195312 -8.738281 14.171875 -8.039062 13.015625 -7.15625 C 12.191406 -6.550781 11.296875 -5.960938 10.328125 -5.390625 C 9.367188 -4.828125 8.296875 -4.367188 7.109375 -4.015625 C 5.929688 -3.660156 4.582031 -3.46875 3.0625 -3.4375 L 1.625 -3.40625 L 1.625 -9.890625 L 2.34375 -9.921875 C 3.3125 -9.953125 4.15625 -10.125 4.875 -10.4375 C 5.59375 -10.75 6.144531 -11.191406 6.53125 -11.765625 C 6.914062 -12.335938 7.109375 -13.03125 7.109375 -13.84375 L 7.109375 -14 C 7.109375 -14.96875 6.929688 -15.816406 6.578125 -16.546875 C 6.222656 -17.273438 5.695312 -17.882812 5 -18.375 C 4.300781 -18.875 3.421875 -19.253906 2.359375 -19.515625 L 2.359375 -22.609375 L 6.265625 -23.640625 C 7.835938 -23.566406 9.175781 -23.171875 10.28125 -22.453125 C 11.394531 -21.734375 12.242188 -20.796875 12.828125 -19.640625 C 13.421875 -18.484375 13.71875 -17.210938 13.71875 -15.828125 L 13.71875 -15.6875 C 13.71875 -13.84375 13.195312 -12.285156 12.15625 -11.015625 C 11.125 -9.742188 9.5625 -8.695312 7.46875 -7.875 L 8.265625 -10.96875 C 8.691406 -11.226562 9.144531 -11.53125 9.625 -11.875 C 10.101562 -12.21875 10.554688 -12.53125 10.984375 -12.8125 C 12.191406 -13.632812 13.398438 -14.429688 14.609375 -15.203125 C 15.816406 -15.984375 17.09375 -16.375 18.4375 -16.375 C 18.800781 -16.375 19.15625 -16.347656 19.5 -16.296875 C 19.84375 -16.253906 20.191406 -16.175781 20.546875 -16.0625 Z M 23.296875 -24.875 L 26.1875 -24.875 L 26.1875 -15 L 23.296875 -15 Z M 23.296875 -22.21875 L 23.296875 -27.671875 L 29.203125 -27.671875 L 29.578125 -22.21875 Z M 23.296875 -22.21875 "/></g></g><g style="fill:#a6a6a6;fill-opacity:0.4;"><g transform="translate(57.644653, 62.617552)"><path style="stroke:none" d="M 2.625 0 L 2.625 -23.71875 L 9.828125 -23.71875 L 9.828125 0 Z M -0.40625 -22.21875 L -0.765625 -27.671875 L 9.40625 -27.671875 L 9.40625 -22.21875 Z M 6.9375 -24.875 L 9.828125 -24.875 L 9.828125 -15 L 6.9375 -15 Z M 6.9375 -22.21875 L 6.9375 -27.671875 L 12.84375 -27.671875 L 13.21875 -22.21875 Z M 6.9375 -22.21875 "/></g></g><g style="fill:#a6a6a6;fill-opacity:0.4;"><g transform="translate(74.733505, 62.617552)"><path style="stroke:none" d="M -0.328125 -22.21875 L -0.703125 -27.671875 L 24.4375 -27.671875 L 24.4375 -22.21875 Z M 18.203125 0.0625 L 1.953125 -6.46875 L 1.953125 -16.3125 C 4.816406 -17.445312 7.847656 -18.488281 11.046875 -19.4375 C 14.253906 -20.394531 17.484375 -21.1875 20.734375 -21.8125 L 21.71875 -15.5625 C 20.007812 -15.28125 18.265625 -14.929688 16.484375 -14.515625 C 14.710938 -14.097656 12.96875 -13.613281 11.25 -13.0625 C 9.53125 -12.507812 7.90625 -11.875 6.375 -11.15625 L 9.171875 -14.734375 L 9.171875 -7.109375 L 6.390625 -10.921875 L 17.96875 -6.296875 L 17.578125 -4.640625 L 17.234375 -10.0625 L 17.234375 -17.609375 L 17.34375 -19.359375 L 17.34375 -23.375 L 24.4375 -23.375 L 24.4375 0.0625 Z M 21.53125 -24.875 L 24.4375 -24.875 L 24.4375 -15 L 21.53125 -15 Z M 21.53125 -22.21875 L 21.53125 -27.671875 L 27.4375 -27.671875 L 27.828125 -22.21875 Z M 21.53125 -22.21875 "/></g></g><g style="fill:#a6a6a6;fill-opacity:0.4;"><g transform="translate(103.501369, 63.476287)"><path style="stroke:none" d="M -12.359375 -31.625 L -2.3125 -41.609375 L 4.9375 -41.609375 L -3.328125 -31.625 Z M -12.359375 -31.625 "/></g></g><g style="fill:#a6a6a6;fill-opacity:0.4;"><g transform="translate(106.420519, 62.617552)"><path style="stroke:none" d="M 16.3125 0 C 11.738281 0 8.195312 -1.117188 5.6875 -3.359375 C 3.1875 -5.597656 1.832031 -8.851562 1.625 -13.125 L 1.359375 -19.046875 L 8.3125 -19.046875 L 8.65625 -13.59375 C 8.726562 -12.570312 8.898438 -11.609375 9.171875 -10.703125 C 9.441406 -9.804688 9.863281 -9.007812 10.4375 -8.3125 C 11.007812 -7.625 11.773438 -7.078125 12.734375 -6.671875 C 13.691406 -6.273438 14.894531 -6.078125 16.34375 -6.078125 C 18.082031 -6.078125 19.457031 -6.410156 20.46875 -7.078125 C 21.488281 -7.742188 22 -8.75 22 -10.09375 C 22 -10.519531 22 -10.910156 22 -11.265625 C 22 -11.628906 22 -11.96875 22 -12.28125 C 22 -12.59375 22 -12.882812 22 -13.15625 L 25.609375 -11.640625 L 23.609375 -10.671875 C 22.828125 -10.285156 22.007812 -9.976562 21.15625 -9.75 C 20.300781 -9.53125 19.332031 -9.421875 18.25 -9.421875 C 16.03125 -9.421875 14.296875 -9.960938 13.046875 -11.046875 C 11.804688 -12.140625 11.1875 -13.753906 11.1875 -15.890625 L 11.1875 -16.515625 C 11.1875 -17.835938 11.453125 -18.972656 11.984375 -19.921875 C 12.523438 -20.867188 13.269531 -21.648438 14.21875 -22.265625 C 15.175781 -22.878906 16.285156 -23.359375 17.546875 -23.703125 L 21.515625 -23.46875 L 23.609375 -21.234375 C 22.578125 -21.035156 21.65625 -20.734375 20.84375 -20.328125 C 20.03125 -19.929688 19.390625 -19.425781 18.921875 -18.8125 C 18.460938 -18.207031 18.234375 -17.484375 18.234375 -16.640625 L 18.234375 -16.3125 C 18.234375 -15.726562 18.359375 -15.300781 18.609375 -15.03125 C 18.859375 -14.769531 19.242188 -14.640625 19.765625 -14.640625 C 20.160156 -14.640625 20.535156 -14.710938 20.890625 -14.859375 C 21.242188 -15.003906 21.578125 -15.164062 21.890625 -15.34375 L 23.03125 -16.015625 L 28.546875 -13.5625 C 28.617188 -13.132812 28.671875 -12.695312 28.703125 -12.25 C 28.742188 -11.800781 28.769531 -11.347656 28.78125 -10.890625 C 28.800781 -10.441406 28.8125 -9.988281 28.8125 -9.53125 C 28.8125 -6.53125 27.75 -4.191406 25.625 -2.515625 C 23.5 -0.835938 20.394531 0 16.3125 0 Z M 31.453125 0.453125 C 31.367188 -0.191406 31.296875 -0.882812 31.234375 -1.625 C 31.179688 -2.375 31.144531 -3.140625 31.125 -3.921875 C 31.101562 -4.703125 31.09375 -5.460938 31.09375 -6.203125 C 31.09375 -7.296875 31.125 -8.40625 31.1875 -9.53125 C 31.25 -10.664062 31.351562 -11.800781 31.5 -12.9375 C 31.65625 -14.070312 31.851562 -15.195312 32.09375 -16.3125 L 35.984375 -14.109375 C 33.492188 -14.265625 31.300781 -14.722656 29.40625 -15.484375 C 27.519531 -16.253906 25.945312 -17.265625 24.6875 -18.515625 C 23.425781 -19.765625 22.488281 -21.1875 21.875 -22.78125 L 28.1875 -23.59375 C 28.84375 -22.601562 29.695312 -21.734375 30.75 -20.984375 C 31.800781 -20.234375 33.015625 -19.617188 34.390625 -19.140625 C 35.773438 -18.660156 37.289062 -18.328125 38.9375 -18.140625 C 38.800781 -16.921875 38.679688 -15.632812 38.578125 -14.28125 C 38.472656 -12.9375 38.390625 -11.578125 38.328125 -10.203125 C 38.273438 -8.835938 38.25 -7.503906 38.25 -6.203125 C 38.25 -5.234375 38.25 -4.140625 38.25 -2.921875 C 38.25 -1.710938 38.257812 -0.585938 38.28125 0.453125 Z M -1.25 -22.21875 L -1.625 -27.671875 L 42.03125 -27.671875 L 42.421875 -22.21875 Z M -1.25 -22.21875 "/></g></g><g style="fill:#a6a6a6;fill-opacity:0.4;"><g transform="translate(151.782586, 62.617552)"><path style="stroke:none" d="M 17.78125 0 L 17.78125 -10.546875 L 17.96875 -13.71875 L 17.78125 -18.265625 L 17.78125 -24.859375 L 24.984375 -24.859375 L 24.984375 0 Z M -1.328125 -22.21875 L -1.71875 -27.671875 L 24.09375 -27.671875 L 24.453125 -22.21875 Z M 1.734375 -5.703125 C 1.597656 -6.304688 1.5 -6.941406 1.4375 -7.609375 C 1.382812 -8.285156 1.359375 -8.976562 1.359375 -9.6875 C 1.359375 -12.5625 2.082031 -14.785156 3.53125 -16.359375 C 4.976562 -17.941406 7.109375 -18.734375 9.921875 -18.734375 C 11.453125 -18.734375 12.734375 -18.507812 13.765625 -18.0625 C 14.804688 -17.625 15.644531 -17.050781 16.28125 -16.34375 C 16.914062 -15.632812 17.394531 -14.890625 17.71875 -14.109375 L 18.359375 -14.109375 L 17.859375 -6.546875 C 17.347656 -7.765625 16.769531 -8.785156 16.125 -9.609375 C 15.476562 -10.429688 14.789062 -11.050781 14.0625 -11.46875 C 13.332031 -11.894531 12.570312 -12.109375 11.78125 -12.109375 C 10.78125 -12.109375 10.03125 -11.828125 9.53125 -11.265625 C 9.03125 -10.710938 8.78125 -9.878906 8.78125 -8.765625 C 8.78125 -8.191406 8.804688 -7.65625 8.859375 -7.15625 C 8.921875 -6.664062 9.003906 -6.179688 9.109375 -5.703125 Z M 22.09375 -24.875 L 24.984375 -24.875 L 24.984375 -15 L 22.09375 -15 Z M 22.09375 -22.21875 L 22.09375 -27.671875 L 28 -27.671875 L 28.375 -22.21875 Z M 22.09375 -22.21875 "/></g></g><g style="fill:#a6a6a6;fill-opacity:0.4;"><g transform="translate(179.261484, 62.617552)"><path style="stroke:none" d="M -2.40625 -28.890625 L -10.96875 -28.890625 C -13.820312 -28.890625 -16 -29.351562 -17.5 -30.28125 C -19 -31.207031 -19.75 -32.710938 -19.75 -34.796875 C -19.75 -36.921875 -18.820312 -38.609375 -16.96875 -39.859375 C -15.113281 -41.109375 -12.519531 -41.734375 -9.1875 -41.734375 C -5.125 -41.734375 -1.6875 -41.09375 1.125 -39.8125 C 3.9375 -38.539062 6.078125 -36.75 7.546875 -34.4375 C 9.015625 -32.132812 9.75 -29.414062 9.75 -26.28125 L 9.75 -22.203125 L 2.765625 -21.703125 L 2.765625 -26.59375 C 2.765625 -28.625 2.367188 -30.351562 1.578125 -31.78125 C 0.785156 -33.21875 -0.457031 -34.316406 -2.15625 -35.078125 C -3.863281 -35.835938 -6.085938 -36.21875 -8.828125 -36.21875 C -10.296875 -36.21875 -11.34375 -36.082031 -11.96875 -35.8125 C -12.601562 -35.550781 -12.921875 -35.1875 -12.921875 -34.71875 C -12.921875 -34.351562 -12.78125 -34.078125 -12.5 -33.890625 C -12.226562 -33.710938 -11.738281 -33.625 -11.03125 -33.625 L -2.796875 -33.625 Z M 2.625 0 L 2.625 -23.71875 L 9.828125 -23.71875 L 9.828125 0 Z M -0.40625 -22.21875 L -0.765625 -27.671875 L 9.40625 -27.671875 L 9.40625 -22.21875 Z M 6.9375 -24.875 L 9.828125 -24.875 L 9.828125 -15 L 6.9375 -15 Z M 6.9375 -22.21875 L 6.9375 -27.671875 L 12.84375 -27.671875 L 13.21875 -22.21875 Z M 6.9375 -22.21875 "/></g></g><g style="fill:#a6a6a6;fill-opacity:0.4;"><g transform="translate(196.350336, 62.617552)"><path style="stroke:none" d="M 17.78125 0 L 17.78125 -10.546875 L 17.96875 -13.71875 L 17.78125 -18.265625 L 17.78125 -24.859375 L 24.984375 -24.859375 L 24.984375 0 Z M -1.328125 -22.21875 L -1.71875 -27.671875 L 24.09375 -27.671875 L 24.453125 -22.21875 Z M 1.734375 -5.703125 C 1.597656 -6.304688 1.5 -6.941406 1.4375 -7.609375 C 1.382812 -8.285156 1.359375 -8.976562 1.359375 -9.6875 C 1.359375 -12.5625 2.082031 -14.785156 3.53125 -16.359375 C 4.976562 -17.941406 7.109375 -18.734375 9.921875 -18.734375 C 11.453125 -18.734375 12.734375 -18.507812 13.765625 -18.0625 C 14.804688 -17.625 15.644531 -17.050781 16.28125 -16.34375 C 16.914062 -15.632812 17.394531 -14.890625 17.71875 -14.109375 L 18.359375 -14.109375 L 17.859375 -6.546875 C 17.347656 -7.765625 16.769531 -8.785156 16.125 -9.609375 C 15.476562 -10.429688 14.789062 -11.050781 14.0625 -11.46875 C 13.332031 -11.894531 12.570312 -12.109375 11.78125 -12.109375 C 10.78125 -12.109375 10.03125 -11.828125 9.53125 -11.265625 C 9.03125 -10.710938 8.78125 -9.878906 8.78125 -8.765625 C 8.78125 -8.191406 8.804688 -7.65625 8.859375 -7.15625 C 8.921875 -6.664062 9.003906 -6.179688 9.109375 -5.703125 Z M 22.09375 -24.875 L 24.984375 -24.875 L 24.984375 -15 L 22.09375 -15 Z M 22.09375 -22.21875 L 22.09375 -27.671875 L 28 -27.671875 L 28.375 -22.21875 Z M 22.09375 -22.21875 "/></g></g><g style="fill:#a6a6a6;fill-opacity:0.4;"><g transform="translate(228.595529, 62.617552)"><path style="stroke:none" d=""/></g></g><g style="fill:#a6a6a6;fill-opacity:0.4;"><g transform="translate(240.188591, 62.617552)"><path style="stroke:none" d="M 1.5625 -16 L 1.5625 -18.328125 C 1.5625 -21.492188 2.421875 -23.9375 4.140625 -25.65625 C 5.867188 -27.375 8.410156 -28.234375 11.765625 -28.234375 C 14.203125 -28.234375 16.132812 -27.796875 17.5625 -26.921875 C 18.988281 -26.046875 19.929688 -24.710938 20.390625 -22.921875 L 21.421875 -22.921875 L 21.3125 -16.515625 L 20.046875 -15.65625 L 19.96875 -18.375 C 19.351562 -19.59375 18.550781 -20.5 17.5625 -21.09375 C 16.570312 -21.6875 15.382812 -21.984375 14 -21.984375 C 12.425781 -21.984375 11.242188 -21.640625 10.453125 -20.953125 C 9.671875 -20.265625 9.28125 -19.285156 9.28125 -18.015625 L 9.28125 -16.421875 L 8.453125 -18.421875 L 14.5625 -14.59375 L 9.3125 -11.140625 Z M 7.5 -4.765625 L 2.703125 -8.84375 L 20.15625 -19.21875 L 22.890625 -13.453125 Z M 20.046875 0 L 20.046875 -20.96875 L 20.609375 -20.96875 L 20.609375 -27.671875 L 27.265625 -27.671875 L 27.265625 0 Z M 24.359375 -24.875 L 27.265625 -24.875 L 27.265625 -15 L 24.359375 -15 Z M 24.359375 -22.21875 L 24.359375 -27.671875 L 30.265625 -27.671875 L 30.65625 -22.21875 Z M 24.359375 -22.21875 "/></g></g><g style="fill:#a6a6a6;fill-opacity:0.4;"><g transform="translate(240.188591, 62.27406)"><path style="stroke:none" d="M 27.265625 6.671875 L 20.046875 4.140625 L 20.046875 -0.453125 L 27.265625 -0.453125 Z M 34.5 16.921875 L 24.40625 11.890625 L 28.3125 12.015625 C 27.382812 12.660156 26.28125 13.191406 25 13.609375 C 23.71875 14.023438 22.375 14.234375 20.96875 14.234375 C 17.945312 14.234375 15.65625 13.660156 14.09375 12.515625 C 12.53125 11.378906 11.75 9.8125 11.75 7.8125 C 11.75 6.519531 12.066406 5.421875 12.703125 4.515625 C 13.347656 3.617188 14.296875 2.9375 15.546875 2.46875 C 16.804688 2 18.335938 1.765625 20.140625 1.765625 C 20.554688 1.765625 21.035156 1.785156 21.578125 1.828125 C 22.117188 1.867188 22.644531 1.929688 23.15625 2.015625 C 23.675781 2.097656 24.101562 2.210938 24.4375 2.359375 L 27.265625 6.671875 C 26.960938 6.671875 26.539062 6.671875 26 6.671875 C 25.457031 6.671875 24.878906 6.671875 24.265625 6.671875 C 23.648438 6.671875 23.070312 6.671875 22.53125 6.671875 C 21.988281 6.671875 21.578125 6.671875 21.296875 6.671875 C 20.679688 6.671875 20.179688 6.722656 19.796875 6.828125 C 19.421875 6.929688 19.148438 7.078125 18.984375 7.265625 C 18.816406 7.460938 18.734375 7.71875 18.734375 8.03125 C 18.734375 8.457031 18.957031 8.757812 19.40625 8.9375 C 19.851562 9.113281 20.507812 9.203125 21.375 9.203125 C 22.3125 9.203125 23.253906 9.082031 24.203125 8.84375 C 25.160156 8.601562 26.070312 8.269531 26.9375 7.84375 L 34.96875 11.328125 Z M 34.5 16.921875 "/></g></g><g style="fill:#a6a6a6;fill-opacity:0.4;"><g transform="translate(274.709365, 62.617552)"><path style="stroke:none" d="M 16.3125 0 C 11.738281 0 8.195312 -1.117188 5.6875 -3.359375 C 3.1875 -5.597656 1.832031 -8.851562 1.625 -13.125 L 1.359375 -19.046875 L 8.3125 -19.046875 L 8.65625 -13.59375 C 8.726562 -12.570312 8.898438 -11.609375 9.171875 -10.703125 C 9.441406 -9.804688 9.863281 -9.007812 10.4375 -8.3125 C 11.007812 -7.625 11.773438 -7.078125 12.734375 -6.671875 C 13.691406 -6.273438 14.894531 -6.078125 16.34375 -6.078125 C 18.082031 -6.078125 19.457031 -6.410156 20.46875 -7.078125 C 21.488281 -7.742188 22 -8.75 22 -10.09375 C 22 -10.519531 22 -10.910156 22 -11.265625 C 22 -11.628906 22 -11.96875 22 -12.28125 C 22 -12.59375 22 -12.882812 22 -13.15625 L 25.609375 -11.640625 L 23.609375 -10.671875 C 22.828125 -10.285156 22.007812 -9.976562 21.15625 -9.75 C 20.300781 -9.53125 19.332031 -9.421875 18.25 -9.421875 C 16.03125 -9.421875 14.296875 -9.960938 13.046875 -11.046875 C 11.804688 -12.140625 11.1875 -13.753906 11.1875 -15.890625 L 11.1875 -16.515625 C 11.1875 -17.835938 11.453125 -18.972656 11.984375 -19.921875 C 12.523438 -20.867188 13.269531 -21.648438 14.21875 -22.265625 C 15.175781 -22.878906 16.285156 -23.359375 17.546875 -23.703125 L 21.515625 -23.46875 L 23.609375 -21.234375 C 22.578125 -21.035156 21.65625 -20.734375 20.84375 -20.328125 C 20.03125 -19.929688 19.390625 -19.425781 18.921875 -18.8125 C 18.460938 -18.207031 18.234375 -17.484375 18.234375 -16.640625 L 18.234375 -16.3125 C 18.234375 -15.726562 18.359375 -15.300781 18.609375 -15.03125 C 18.859375 -14.769531 19.242188 -14.640625 19.765625 -14.640625 C 20.160156 -14.640625 20.535156 -14.710938 20.890625 -14.859375 C 21.242188 -15.003906 21.578125 -15.164062 21.890625 -15.34375 L 23.03125 -16.015625 L 28.546875 -13.5625 C 28.617188 -13.132812 28.671875 -12.695312 28.703125 -12.25 C 28.742188 -11.800781 28.769531 -11.347656 28.78125 -10.890625 C 28.800781 -10.441406 28.8125 -9.988281 28.8125 -9.53125 C 28.8125 -6.53125 27.75 -4.191406 25.625 -2.515625 C 23.5 -0.835938 20.394531 0 16.3125 0 Z M 31.453125 0.453125 C 31.367188 -0.191406 31.296875 -0.882812 31.234375 -1.625 C 31.179688 -2.375 31.144531 -3.140625 31.125 -3.921875 C 31.101562 -4.703125 31.09375 -5.460938 31.09375 -6.203125 C 31.09375 -7.296875 31.125 -8.40625 31.1875 -9.53125 C 31.25 -10.664062 31.351562 -11.800781 31.5 -12.9375 C 31.65625 -14.070312 31.851562 -15.195312 32.09375 -16.3125 L 35.984375 -14.109375 C 33.492188 -14.265625 31.300781 -14.722656 29.40625 -15.484375 C 27.519531 -16.253906 25.945312 -17.265625 24.6875 -18.515625 C 23.425781 -19.765625 22.488281 -21.1875 21.875 -22.78125 L 28.1875 -23.59375 C 28.84375 -22.601562 29.695312 -21.734375 30.75 -20.984375 C 31.800781 -20.234375 33.015625 -19.617188 34.390625 -19.140625 C 35.773438 -18.660156 37.289062 -18.328125 38.9375 -18.140625 C 38.800781 -16.921875 38.679688 -15.632812 38.578125 -14.28125 C 38.472656 -12.9375 38.390625 -11.578125 38.328125 -10.203125 C 38.273438 -8.835938 38.25 -7.503906 38.25 -6.203125 C 38.25 -5.234375 38.25 -4.140625 38.25 -2.921875 C 38.25 -1.710938 38.257812 -0.585938 38.28125 0.453125 Z M -1.25 -22.21875 L -1.625 -27.671875 L 42.03125 -27.671875 L 42.421875 -22.21875 Z M -1.25 -22.21875 "/></g></g><g style="fill:#a6a6a6;fill-opacity:0.4;"><g transform="translate(315.30516, 62.617552)"><path style="stroke:none" d="M 2.625 0 L 2.625 -23.71875 L 9.828125 -23.71875 L 9.828125 0 Z M -0.40625 -22.21875 L -0.765625 -27.671875 L 9.40625 -27.671875 L 9.40625 -22.21875 Z M 6.9375 -24.875 L 9.828125 -24.875 L 9.828125 -15 L 6.9375 -15 Z M 6.9375 -22.21875 L 6.9375 -27.671875 L 12.84375 -27.671875 L 13.21875 -22.21875 Z M 6.9375 -22.21875 "/></g></g><g style="fill:#e5762f;fill-opacity:1;"><g transform="translate(27.065873, 60.719875)"><path style="stroke:none" d="M 18.984375 0 L 18.984375 -10.984375 L 19.234375 -13.90625 L 18.984375 -19.53125 L 18.984375 -23.484375 L 26.1875 -23.484375 L 26.1875 0 Z M -1.734375 -22.21875 L -2.125 -27.671875 L 26.1875 -27.671875 L 26.1875 -22.21875 Z M 20.25 -9.875 C 20.03125 -9.9375 19.785156 -9.976562 19.515625 -10 C 19.242188 -10.019531 19.015625 -10.03125 18.828125 -10.03125 C 17.898438 -10.03125 16.988281 -9.769531 16.09375 -9.25 C 15.195312 -8.738281 14.171875 -8.039062 13.015625 -7.15625 C 12.191406 -6.550781 11.296875 -5.960938 10.328125 -5.390625 C 9.367188 -4.828125 8.296875 -4.367188 7.109375 -4.015625 C 5.929688 -3.660156 4.582031 -3.46875 3.0625 -3.4375 L 1.625 -3.40625 L 1.625 -9.890625 L 2.34375 -9.921875 C 3.3125 -9.953125 4.15625 -10.125 4.875 -10.4375 C 5.59375 -10.75 6.144531 -11.191406 6.53125 -11.765625 C 6.914062 -12.335938 7.109375 -13.03125 7.109375 -13.84375 L 7.109375 -14 C 7.109375 -14.96875 6.929688 -15.816406 6.578125 -16.546875 C 6.222656 -17.273438 5.695312 -17.882812 5 -18.375 C 4.300781 -18.875 3.421875 -19.253906 2.359375 -19.515625 L 2.359375 -22.609375 L 6.265625 -23.640625 C 7.835938 -23.566406 9.175781 -23.171875 10.28125 -22.453125 C 11.394531 -21.734375 12.242188 -20.796875 12.828125 -19.640625 C 13.421875 -18.484375 13.71875 -17.210938 13.71875 -15.828125 L 13.71875 -15.6875 C 13.71875 -13.84375 13.195312 -12.285156 12.15625 -11.015625 C 11.125 -9.742188 9.5625 -8.695312 7.46875 -7.875 L 8.265625 -10.96875 C 8.691406 -11.226562 9.144531 -11.53125 9.625 -11.875 C 10.101562 -12.21875 10.554688 -12.53125 10.984375 -12.8125 C 12.191406 -13.632812 13.398438 -14.429688 14.609375 -15.203125 C 15.816406 -15.984375 17.09375 -16.375 18.4375 -16.375 C 18.800781 -16.375 19.15625 -16.347656 19.5 -16.296875 C 19.84375 -16.253906 20.191406 -16.175781 20.546875 -16.0625 Z M 23.296875 -24.875 L 26.1875 -24.875 L 26.1875 -15 L 23.296875 -15 Z M 23.296875 -22.21875 L 23.296875 -27.671875 L 29.203125 -27.671875 L 29.578125 -22.21875 Z M 23.296875 -22.21875 "/></g></g><g style="fill:#e5762f;fill-opacity:1;"><g transform="translate(55.746976, 60.719875)"><path style="stroke:none" d="M 2.625 0 L 2.625 -23.71875 L 9.828125 -23.71875 L 9.828125 0 Z M -0.40625 -22.21875 L -0.765625 -27.671875 L 9.40625 -27.671875 L 9.40625 -22.21875 Z M 6.9375 -24.875 L 9.828125 -24.875 L 9.828125 -15 L 6.9375 -15 Z M 6.9375 -22.21875 L 6.9375 -27.671875 L 12.84375 -27.671875 L 13.21875 -22.21875 Z M 6.9375 -22.21875 "/></g></g><g style="fill:#e5762f;fill-opacity:1;"><g transform="translate(72.835829, 60.719875)"><path style="stroke:none" d="M -0.328125 -22.21875 L -0.703125 -27.671875 L 24.4375 -27.671875 L 24.4375 -22.21875 Z M 18.203125 0.0625 L 1.953125 -6.46875 L 1.953125 -16.3125 C 4.816406 -17.445312 7.847656 -18.488281 11.046875 -19.4375 C 14.253906 -20.394531 17.484375 -21.1875 20.734375 -21.8125 L 21.71875 -15.5625 C 20.007812 -15.28125 18.265625 -14.929688 16.484375 -14.515625 C 14.710938 -14.097656 12.96875 -13.613281 11.25 -13.0625 C 9.53125 -12.507812 7.90625 -11.875 6.375 -11.15625 L 9.171875 -14.734375 L 9.171875 -7.109375 L 6.390625 -10.921875 L 17.96875 -6.296875 L 17.578125 -4.640625 L 17.234375 -10.0625 L 17.234375 -17.609375 L 17.34375 -19.359375 L 17.34375 -23.375 L 24.4375 -23.375 L 24.4375 0.0625 Z M 21.53125 -24.875 L 24.4375 -24.875 L 24.4375 -15 L 21.53125 -15 Z M 21.53125 -22.21875 L 21.53125 -27.671875 L 27.4375 -27.671875 L 27.828125 -22.21875 Z M 21.53125 -22.21875 "/></g></g><g style="fill:#e5762f;fill-opacity:1;"><g transform="translate(101.603693, 61.578611)"><path style="stroke:none" d="M -12.359375 -31.625 L -2.3125 -41.609375 L 4.9375 -41.609375 L -3.328125 -31.625 Z M -12.359375 -31.625 "/></g></g><g style="fill:#e5762f;fill-opacity:1;"><g transform="translate(104.522843, 60.719875)"><path style="stroke:none" d="M 16.3125 0 C 11.738281 0 8.195312 -1.117188 5.6875 -3.359375 C 3.1875 -5.597656 1.832031 -8.851562 1.625 -13.125 L 1.359375 -19.046875 L 8.3125 -19.046875 L 8.65625 -13.59375 C 8.726562 -12.570312 8.898438 -11.609375 9.171875 -10.703125 C 9.441406 -9.804688 9.863281 -9.007812 10.4375 -8.3125 C 11.007812 -7.625 11.773438 -7.078125 12.734375 -6.671875 C 13.691406 -6.273438 14.894531 -6.078125 16.34375 -6.078125 C 18.082031 -6.078125 19.457031 -6.410156 20.46875 -7.078125 C 21.488281 -7.742188 22 -8.75 22 -10.09375 C 22 -10.519531 22 -10.910156 22 -11.265625 C 22 -11.628906 22 -11.96875 22 -12.28125 C 22 -12.59375 22 -12.882812 22 -13.15625 L 25.609375 -11.640625 L 23.609375 -10.671875 C 22.828125 -10.285156 22.007812 -9.976562 21.15625 -9.75 C 20.300781 -9.53125 19.332031 -9.421875 18.25 -9.421875 C 16.03125 -9.421875 14.296875 -9.960938 13.046875 -11.046875 C 11.804688 -12.140625 11.1875 -13.753906 11.1875 -15.890625 L 11.1875 -16.515625 C 11.1875 -17.835938 11.453125 -18.972656 11.984375 -19.921875 C 12.523438 -20.867188 13.269531 -21.648438 14.21875 -22.265625 C 15.175781 -22.878906 16.285156 -23.359375 17.546875 -23.703125 L 21.515625 -23.46875 L 23.609375 -21.234375 C 22.578125 -21.035156 21.65625 -20.734375 20.84375 -20.328125 C 20.03125 -19.929688 19.390625 -19.425781 18.921875 -18.8125 C 18.460938 -18.207031 18.234375 -17.484375 18.234375 -16.640625 L 18.234375 -16.3125 C 18.234375 -15.726562 18.359375 -15.300781 18.609375 -15.03125 C 18.859375 -14.769531 19.242188 -14.640625 19.765625 -14.640625 C 20.160156 -14.640625 20.535156 -14.710938 20.890625 -14.859375 C 21.242188 -15.003906 21.578125 -15.164062 21.890625 -15.34375 L 23.03125 -16.015625 L 28.546875 -13.5625 C 28.617188 -13.132812 28.671875 -12.695312 28.703125 -12.25 C 28.742188 -11.800781 28.769531 -11.347656 28.78125 -10.890625 C 28.800781 -10.441406 28.8125 -9.988281 28.8125 -9.53125 C 28.8125 -6.53125 27.75 -4.191406 25.625 -2.515625 C 23.5 -0.835938 20.394531 0 16.3125 0 Z M 31.453125 0.453125 C 31.367188 -0.191406 31.296875 -0.882812 31.234375 -1.625 C 31.179688 -2.375 31.144531 -3.140625 31.125 -3.921875 C 31.101562 -4.703125 31.09375 -5.460938 31.09375 -6.203125 C 31.09375 -7.296875 31.125 -8.40625 31.1875 -9.53125 C 31.25 -10.664062 31.351562 -11.800781 31.5 -12.9375 C 31.65625 -14.070312 31.851562 -15.195312 32.09375 -16.3125 L 35.984375 -14.109375 C 33.492188 -14.265625 31.300781 -14.722656 29.40625 -15.484375 C 27.519531 -16.253906 25.945312 -17.265625 24.6875 -18.515625 C 23.425781 -19.765625 22.488281 -21.1875 21.875 -22.78125 L 28.1875 -23.59375 C 28.84375 -22.601562 29.695312 -21.734375 30.75 -20.984375 C 31.800781 -20.234375 33.015625 -19.617188 34.390625 -19.140625 C 35.773438 -18.660156 37.289062 -18.328125 38.9375 -18.140625 C 38.800781 -16.921875 38.679688 -15.632812 38.578125 -14.28125 C 38.472656 -12.9375 38.390625 -11.578125 38.328125 -10.203125 C 38.273438 -8.835938 38.25 -7.503906 38.25 -6.203125 C 38.25 -5.234375 38.25 -4.140625 38.25 -2.921875 C 38.25 -1.710938 38.257812 -0.585938 38.28125 0.453125 Z M -1.25 -22.21875 L -1.625 -27.671875 L 42.03125 -27.671875 L 42.421875 -22.21875 Z M -1.25 -22.21875 "/></g></g><g style="fill:#e5762f;fill-opacity:1;"><g transform="translate(149.884909, 60.719875)"><path style="stroke:none" d="M 17.78125 0 L 17.78125 -10.546875 L 17.96875 -13.71875 L 17.78125 -18.265625 L 17.78125 -24.859375 L 24.984375 -24.859375 L 24.984375 0 Z M -1.328125 -22.21875 L -1.71875 -27.671875 L 24.09375 -27.671875 L 24.453125 -22.21875 Z M 1.734375 -5.703125 C 1.597656 -6.304688 1.5 -6.941406 1.4375 -7.609375 C 1.382812 -8.285156 1.359375 -8.976562 1.359375 -9.6875 C 1.359375 -12.5625 2.082031 -14.785156 3.53125 -16.359375 C 4.976562 -17.941406 7.109375 -18.734375 9.921875 -18.734375 C 11.453125 -18.734375 12.734375 -18.507812 13.765625 -18.0625 C 14.804688 -17.625 15.644531 -17.050781 16.28125 -16.34375 C 16.914062 -15.632812 17.394531 -14.890625 17.71875 -14.109375 L 18.359375 -14.109375 L 17.859375 -6.546875 C 17.347656 -7.765625 16.769531 -8.785156 16.125 -9.609375 C 15.476562 -10.429688 14.789062 -11.050781 14.0625 -11.46875 C 13.332031 -11.894531 12.570312 -12.109375 11.78125 -12.109375 C 10.78125 -12.109375 10.03125 -11.828125 9.53125 -11.265625 C 9.03125 -10.710938 8.78125 -9.878906 8.78125 -8.765625 C 8.78125 -8.191406 8.804688 -7.65625 8.859375 -7.15625 C 8.921875 -6.664062 9.003906 -6.179688 9.109375 -5.703125 Z M 22.09375 -24.875 L 24.984375 -24.875 L 24.984375 -15 L 22.09375 -15 Z M 22.09375 -22.21875 L 22.09375 -27.671875 L 28 -27.671875 L 28.375 -22.21875 Z M 22.09375 -22.21875 "/></g></g><g style="fill:#e5762f;fill-opacity:1;"><g transform="translate(177.363807, 60.719875)"><path style="stroke:none" d="M -2.40625 -28.890625 L -10.96875 -28.890625 C -13.820312 -28.890625 -16 -29.351562 -17.5 -30.28125 C -19 -31.207031 -19.75 -32.710938 -19.75 -34.796875 C -19.75 -36.921875 -18.820312 -38.609375 -16.96875 -39.859375 C -15.113281 -41.109375 -12.519531 -41.734375 -9.1875 -41.734375 C -5.125 -41.734375 -1.6875 -41.09375 1.125 -39.8125 C 3.9375 -38.539062 6.078125 -36.75 7.546875 -34.4375 C 9.015625 -32.132812 9.75 -29.414062 9.75 -26.28125 L 9.75 -22.203125 L 2.765625 -21.703125 L 2.765625 -26.59375 C 2.765625 -28.625 2.367188 -30.351562 1.578125 -31.78125 C 0.785156 -33.21875 -0.457031 -34.316406 -2.15625 -35.078125 C -3.863281 -35.835938 -6.085938 -36.21875 -8.828125 -36.21875 C -10.296875 -36.21875 -11.34375 -36.082031 -11.96875 -35.8125 C -12.601562 -35.550781 -12.921875 -35.1875 -12.921875 -34.71875 C -12.921875 -34.351562 -12.78125 -34.078125 -12.5 -33.890625 C -12.226562 -33.710938 -11.738281 -33.625 -11.03125 -33.625 L -2.796875 -33.625 Z M 2.625 0 L 2.625 -23.71875 L 9.828125 -23.71875 L 9.828125 0 Z M -0.40625 -22.21875 L -0.765625 -27.671875 L 9.40625 -27.671875 L 9.40625 -22.21875 Z M 6.9375 -24.875 L 9.828125 -24.875 L 9.828125 -15 L 6.9375 -15 Z M 6.9375 -22.21875 L 6.9375 -27.671875 L 12.84375 -27.671875 L 13.21875 -22.21875 Z M 6.9375 -22.21875 "/></g></g><g style="fill:#e5762f;fill-opacity:1;"><g transform="translate(194.45266, 60.719875)"><path style="stroke:none" d="M 17.78125 0 L 17.78125 -10.546875 L 17.96875 -13.71875 L 17.78125 -18.265625 L 17.78125 -24.859375 L 24.984375 -24.859375 L 24.984375 0 Z M -1.328125 -22.21875 L -1.71875 -27.671875 L 24.09375 -27.671875 L 24.453125 -22.21875 Z M 1.734375 -5.703125 C 1.597656 -6.304688 1.5 -6.941406 1.4375 -7.609375 C 1.382812 -8.285156 1.359375 -8.976562 1.359375 -9.6875 C 1.359375 -12.5625 2.082031 -14.785156 3.53125 -16.359375 C 4.976562 -17.941406 7.109375 -18.734375 9.921875 -18.734375 C 11.453125 -18.734375 12.734375 -18.507812 13.765625 -18.0625 C 14.804688 -17.625 15.644531 -17.050781 16.28125 -16.34375 C 16.914062 -15.632812 17.394531 -14.890625 17.71875 -14.109375 L 18.359375 -14.109375 L 17.859375 -6.546875 C 17.347656 -7.765625 16.769531 -8.785156 16.125 -9.609375 C 15.476562 -10.429688 14.789062 -11.050781 14.0625 -11.46875 C 13.332031 -11.894531 12.570312 -12.109375 11.78125 -12.109375 C 10.78125 -12.109375 10.03125 -11.828125 9.53125 -11.265625 C 9.03125 -10.710938 8.78125 -9.878906 8.78125 -8.765625 C 8.78125 -8.191406 8.804688 -7.65625 8.859375 -7.15625 C 8.921875 -6.664062 9.003906 -6.179688 9.109375 -5.703125 Z M 22.09375 -24.875 L 24.984375 -24.875 L 24.984375 -15 L 22.09375 -15 Z M 22.09375 -22.21875 L 22.09375 -27.671875 L 28 -27.671875 L 28.375 -22.21875 Z M 22.09375 -22.21875 "/></g></g><g style="fill:#e5762f;fill-opacity:1;"><g transform="translate(226.697853, 60.719875)"><path style="stroke:none" d=""/></g></g><g style="fill:#e5762f;fill-opacity:1;"><g transform="translate(238.290915, 60.719875)"><path style="stroke:none" d="M 1.5625 -16 L 1.5625 -18.328125 C 1.5625 -21.492188 2.421875 -23.9375 4.140625 -25.65625 C 5.867188 -27.375 8.410156 -28.234375 11.765625 -28.234375 C 14.203125 -28.234375 16.132812 -27.796875 17.5625 -26.921875 C 18.988281 -26.046875 19.929688 -24.710938 20.390625 -22.921875 L 21.421875 -22.921875 L 21.3125 -16.515625 L 20.046875 -15.65625 L 19.96875 -18.375 C 19.351562 -19.59375 18.550781 -20.5 17.5625 -21.09375 C 16.570312 -21.6875 15.382812 -21.984375 14 -21.984375 C 12.425781 -21.984375 11.242188 -21.640625 10.453125 -20.953125 C 9.671875 -20.265625 9.28125 -19.285156 9.28125 -18.015625 L 9.28125 -16.421875 L 8.453125 -18.421875 L 14.5625 -14.59375 L 9.3125 -11.140625 Z M 7.5 -4.765625 L 2.703125 -8.84375 L 20.15625 -19.21875 L 22.890625 -13.453125 Z M 20.046875 0 L 20.046875 -20.96875 L 20.609375 -20.96875 L 20.609375 -27.671875 L 27.265625 -27.671875 L 27.265625 0 Z M 24.359375 -24.875 L 27.265625 -24.875 L 27.265625 -15 L 24.359375 -15 Z M 24.359375 -22.21875 L 24.359375 -27.671875 L 30.265625 -27.671875 L 30.65625 -22.21875 Z M 24.359375 -22.21875 "/></g></g><g style="fill:#e5762f;fill-opacity:1;"><g transform="translate(238.290915, 60.376383)"><path style="stroke:none" d="M 27.265625 6.671875 L 20.046875 4.140625 L 20.046875 -0.453125 L 27.265625 -0.453125 Z M 34.5 16.921875 L 24.40625 11.890625 L 28.3125 12.015625 C 27.382812 12.660156 26.28125 13.191406 25 13.609375 C 23.71875 14.023438 22.375 14.234375 20.96875 14.234375 C 17.945312 14.234375 15.65625 13.660156 14.09375 12.515625 C 12.53125 11.378906 11.75 9.8125 11.75 7.8125 C 11.75 6.519531 12.066406 5.421875 12.703125 4.515625 C 13.347656 3.617188 14.296875 2.9375 15.546875 2.46875 C 16.804688 2 18.335938 1.765625 20.140625 1.765625 C 20.554688 1.765625 21.035156 1.785156 21.578125 1.828125 C 22.117188 1.867188 22.644531 1.929688 23.15625 2.015625 C 23.675781 2.097656 24.101562 2.210938 24.4375 2.359375 L 27.265625 6.671875 C 26.960938 6.671875 26.539062 6.671875 26 6.671875 C 25.457031 6.671875 24.878906 6.671875 24.265625 6.671875 C 23.648438 6.671875 23.070312 6.671875 22.53125 6.671875 C 21.988281 6.671875 21.578125 6.671875 21.296875 6.671875 C 20.679688 6.671875 20.179688 6.722656 19.796875 6.828125 C 19.421875 6.929688 19.148438 7.078125 18.984375 7.265625 C 18.816406 7.460938 18.734375 7.71875 18.734375 8.03125 C 18.734375 8.457031 18.957031 8.757812 19.40625 8.9375 C 19.851562 9.113281 20.507812 9.203125 21.375 9.203125 C 22.3125 9.203125 23.253906 9.082031 24.203125 8.84375 C 25.160156 8.601562 26.070312 8.269531 26.9375 7.84375 L 34.96875 11.328125 Z M 34.5 16.921875 "/></g></g><g style="fill:#e5762f;fill-opacity:1;"><g transform="translate(272.811689, 60.719875)"><path style="stroke:none" d="M 16.3125 0 C 11.738281 0 8.195312 -1.117188 5.6875 -3.359375 C 3.1875 -5.597656 1.832031 -8.851562 1.625 -13.125 L 1.359375 -19.046875 L 8.3125 -19.046875 L 8.65625 -13.59375 C 8.726562 -12.570312 8.898438 -11.609375 9.171875 -10.703125 C 9.441406 -9.804688 9.863281 -9.007812 10.4375 -8.3125 C 11.007812 -7.625 11.773438 -7.078125 12.734375 -6.671875 C 13.691406 -6.273438 14.894531 -6.078125 16.34375 -6.078125 C 18.082031 -6.078125 19.457031 -6.410156 20.46875 -7.078125 C 21.488281 -7.742188 22 -8.75 22 -10.09375 C 22 -10.519531 22 -10.910156 22 -11.265625 C 22 -11.628906 22 -11.96875 22 -12.28125 C 22 -12.59375 22 -12.882812 22 -13.15625 L 25.609375 -11.640625 L 23.609375 -10.671875 C 22.828125 -10.285156 22.007812 -9.976562 21.15625 -9.75 C 20.300781 -9.53125 19.332031 -9.421875 18.25 -9.421875 C 16.03125 -9.421875 14.296875 -9.960938 13.046875 -11.046875 C 11.804688 -12.140625 11.1875 -13.753906 11.1875 -15.890625 L 11.1875 -16.515625 C 11.1875 -17.835938 11.453125 -18.972656 11.984375 -19.921875 C 12.523438 -20.867188 13.269531 -21.648438 14.21875 -22.265625 C 15.175781 -22.878906 16.285156 -23.359375 17.546875 -23.703125 L 21.515625 -23.46875 L 23.609375 -21.234375 C 22.578125 -21.035156 21.65625 -20.734375 20.84375 -20.328125 C 20.03125 -19.929688 19.390625 -19.425781 18.921875 -18.8125 C 18.460938 -18.207031 18.234375 -17.484375 18.234375 -16.640625 L 18.234375 -16.3125 C 18.234375 -15.726562 18.359375 -15.300781 18.609375 -15.03125 C 18.859375 -14.769531 19.242188 -14.640625 19.765625 -14.640625 C 20.160156 -14.640625 20.535156 -14.710938 20.890625 -14.859375 C 21.242188 -15.003906 21.578125 -15.164062 21.890625 -15.34375 L 23.03125 -16.015625 L 28.546875 -13.5625 C 28.617188 -13.132812 28.671875 -12.695312 28.703125 -12.25 C 28.742188 -11.800781 28.769531 -11.347656 28.78125 -10.890625 C 28.800781 -10.441406 28.8125 -9.988281 28.8125 -9.53125 C 28.8125 -6.53125 27.75 -4.191406 25.625 -2.515625 C 23.5 -0.835938 20.394531 0 16.3125 0 Z M 31.453125 0.453125 C 31.367188 -0.191406 31.296875 -0.882812 31.234375 -1.625 C 31.179688 -2.375 31.144531 -3.140625 31.125 -3.921875 C 31.101562 -4.703125 31.09375 -5.460938 31.09375 -6.203125 C 31.09375 -7.296875 31.125 -8.40625 31.1875 -9.53125 C 31.25 -10.664062 31.351562 -11.800781 31.5 -12.9375 C 31.65625 -14.070312 31.851562 -15.195312 32.09375 -16.3125 L 35.984375 -14.109375 C 33.492188 -14.265625 31.300781 -14.722656 29.40625 -15.484375 C 27.519531 -16.253906 25.945312 -17.265625 24.6875 -18.515625 C 23.425781 -19.765625 22.488281 -21.1875 21.875 -22.78125 L 28.1875 -23.59375 C 28.84375 -22.601562 29.695312 -21.734375 30.75 -20.984375 C 31.800781 -20.234375 33.015625 -19.617188 34.390625 -19.140625 C 35.773438 -18.660156 37.289062 -18.328125 38.9375 -18.140625 C 38.800781 -16.921875 38.679688 -15.632812 38.578125 -14.28125 C 38.472656 -12.9375 38.390625 -11.578125 38.328125 -10.203125 C 38.273438 -8.835938 38.25 -7.503906 38.25 -6.203125 C 38.25 -5.234375 38.25 -4.140625 38.25 -2.921875 C 38.25 -1.710938 38.257812 -0.585938 38.28125 0.453125 Z M -1.25 -22.21875 L -1.625 -27.671875 L 42.03125 -27.671875 L 42.421875 -22.21875 Z M -1.25 -22.21875 "/></g></g><g style="fill:#e5762f;fill-opacity:1;"><g transform="translate(313.407483, 60.719875)"><path style="stroke:none" d="M 2.625 0 L 2.625 -23.71875 L 9.828125 -23.71875 L 9.828125 0 Z M -0.40625 -22.21875 L -0.765625 -27.671875 L 9.40625 -27.671875 L 9.40625 -22.21875 Z M 6.9375 -24.875 L 9.828125 -24.875 L 9.828125 -15 L 6.9375 -15 Z M 6.9375 -22.21875 L 6.9375 -27.671875 L 12.84375 -27.671875 L 13.21875 -22.21875 Z M 6.9375 -22.21875 "/></g></g></g></svg>